<svg id="d43" width="100%" xmlns="http://www.w3.org/2000/svg" class="flowchart" style="max-width: 1320.921875px;" viewBox="0 -49 1320.921875 2637.015625" role="graphics-document document" aria-roledescription="flowchart-v2"><style>#d43{font-family:"trebuchet ms",verdana,arial,sans-serif;font-size:16px;fill:#000000;}@keyframes edge-animation-frame{from{stroke-dashoffset:0;}}@keyframes dash{to{stroke-dashoffset:0;}}#d43 .edge-animation-slow{stroke-dasharray:9,5!important;stroke-dashoffset:900;animation:dash 50s linear infinite;stroke-linecap:round;}#d43 .edge-animation-fast{stroke-dasharray:9,5!important;stroke-dashoffset:900;animation:dash 20s linear infinite;stroke-linecap:round;}#d43 .error-icon{fill:#552222;}#d43 .error-text{fill:#552222;stroke:#552222;}#d43 .edge-thickness-normal{stroke-width:1px;}#d43 .edge-thickness-thick{stroke-width:3.5px;}#d43 .edge-pattern-solid{stroke-dasharray:0;}#d43 .edge-thickness-invisible{stroke-width:0;fill:none;}#d43 .edge-pattern-dashed{stroke-dasharray:3;}#d43 .edge-pattern-dotted{stroke-dasharray:2;}#d43 .marker{fill:#666;stroke:#666;}#d43 .marker.cross{stroke:#666;}#d43 svg{font-family:"trebuchet ms",verdana,arial,sans-serif;font-size:16px;}#d43 p{margin:0;}#d43 .label{font-family:"trebuchet ms",verdana,arial,sans-serif;color:#000000;}#d43 .cluster-label text{fill:#333;}#d43 .cluster-label span{color:#333;}#d43 .cluster-label span p{background-color:transparent;}#d43 .label text,#d43 span{fill:#000000;color:#000000;}#d43 .node rect,#d43 .node circle,#d43 .node ellipse,#d43 .node polygon,#d43 .node path{fill:#eee;stroke:#999;stroke-width:1px;}#d43 .rough-node .label text,#d43 .node .label text,#d43 .image-shape .label,#d43 .icon-shape .label{text-anchor:middle;}#d43 .node .katex path{fill:#000;stroke:#000;stroke-width:1px;}#d43 .rough-node .label,#d43 .node .label,#d43 .image-shape .label,#d43 .icon-shape .label{text-align:center;}#d43 .node.clickable{cursor:pointer;}#d43 .root .anchor path{fill:#666!important;stroke-width:0;stroke:#666;}#d43 .arrowheadPath{fill:#333333;}#d43 .edgePath .path{stroke:#666;stroke-width:1px;}#d43 .flowchart-link{stroke:#666;fill:none;}#d43 .edgeLabel{background-color:white;text-align:center;}#d43 .edgeLabel p{background-color:white;}#d43 .edgeLabel rect{opacity:0.5;background-color:white;fill:white;}#d43 .labelBkg{background-color:rgba(255, 255, 255, 0.5);}#d43 .cluster rect{fill:hsl(0, 0%, 98.9215686275%);stroke:#707070;stroke-width:1px;}#d43 .cluster text{fill:#333;}#d43 .cluster span{color:#333;}#d43 div.mermaidTooltip{position:absolute;text-align:center;max-width:200px;padding:2px;font-family:"trebuchet ms",verdana,arial,sans-serif;font-size:12px;background:hsl(-160, 0%, 93.3333333333%);border:1px solid #707070;border-radius:2px;pointer-events:none;z-index:100;}#d43 .flowchartTitleText{text-anchor:middle;font-size:18px;fill:#000000;}#d43 rect.text{fill:none;stroke-width:0;}#d43 .icon-shape,#d43 .image-shape{background-color:white;text-align:center;}#d43 .icon-shape p,#d43 .image-shape p{background-color:white;padding:2px;}#d43 .icon-shape .label rect,#d43 .image-shape .label rect{opacity:0.5;background-color:white;fill:white;}#d43 .label-icon{display:inline-block;height:1em;overflow:visible;vertical-align:-0.125em;}#d43 .node .label-icon path{fill:currentColor;stroke:revert;stroke-width:revert;}#d43 .node .neo-node{stroke:#999;}#d43 [data-look="neo"].node rect,#d43 [data-look="neo"].cluster rect,#d43 [data-look="neo"].node polygon{stroke:url(#d43-gradient);filter:drop-shadow( 1px 2px 2px rgba(185,185,185,1));}#d43 [data-look="neo"].swimlane.cluster rect{filter:none;}#d43 [data-look="neo"].node path{stroke:url(#d43-gradient);stroke-width:1px;}#d43 [data-look="neo"].node .outer-path{filter:drop-shadow( 1px 2px 2px rgba(185,185,185,1));}#d43 [data-look="neo"].node .neo-line path{stroke:#999;filter:none;}#d43 [data-look="neo"].node circle{stroke:url(#d43-gradient);filter:drop-shadow( 1px 2px 2px rgba(185,185,185,1));}#d43 [data-look="neo"].node circle .state-start{fill:#000000;}#d43 [data-look="neo"].icon-shape .icon{fill:url(#d43-gradient);filter:drop-shadow( 1px 2px 2px rgba(185,185,185,1));}#d43 [data-look="neo"].icon-shape .icon-neo path{stroke:url(#d43-gradient);filter:drop-shadow( 1px 2px 2px rgba(185,185,185,1));}#d43 :root{--mermaid-font-family:"trebuchet ms",verdana,arial,sans-serif;}#d43 .start rect{fill:rgb(31, 111, 67)!important;color:rgb(255, 255, 255)!important;}#d43 .start polygon{fill:rgb(31, 111, 67)!important;color:rgb(255, 255, 255)!important;}#d43 .start ellipse{fill:rgb(31, 111, 67)!important;color:rgb(255, 255, 255)!important;}#d43 .start circle{fill:rgb(31, 111, 67)!important;color:rgb(255, 255, 255)!important;}#d43 .start path{fill:rgb(31, 111, 67)!important;color:rgb(255, 255, 255)!important;}#d43 .start tspan{fill:rgb(255, 255, 255)!important;}#d43 .proc rect{fill:rgb(244, 234, 210)!important;stroke:rgb(122, 92, 46)!important;color:rgb(34, 34, 34)!important;}#d43 .proc polygon{fill:rgb(244, 234, 210)!important;stroke:rgb(122, 92, 46)!important;color:rgb(34, 34, 34)!important;}#d43 .proc ellipse{fill:rgb(244, 234, 210)!important;stroke:rgb(122, 92, 46)!important;color:rgb(34, 34, 34)!important;}#d43 .proc circle{fill:rgb(244, 234, 210)!important;stroke:rgb(122, 92, 46)!important;color:rgb(34, 34, 34)!important;}#d43 .proc path{fill:rgb(244, 234, 210)!important;stroke:rgb(122, 92, 46)!important;color:rgb(34, 34, 34)!important;}#d43 .proc tspan{fill:rgb(34, 34, 34)!important;}#d43 .dec rect{fill:rgb(255, 243, 196)!important;stroke:rgb(179, 134, 0)!important;color:rgb(34, 34, 34)!important;}#d43 .dec polygon{fill:rgb(255, 243, 196)!important;stroke:rgb(179, 134, 0)!important;color:rgb(34, 34, 34)!important;}#d43 .dec ellipse{fill:rgb(255, 243, 196)!important;stroke:rgb(179, 134, 0)!important;color:rgb(34, 34, 34)!important;}#d43 .dec circle{fill:rgb(255, 243, 196)!important;stroke:rgb(179, 134, 0)!important;color:rgb(34, 34, 34)!important;}#d43 .dec path{fill:rgb(255, 243, 196)!important;stroke:rgb(179, 134, 0)!important;color:rgb(34, 34, 34)!important;}#d43 .dec tspan{fill:rgb(34, 34, 34)!important;}#d43 .db rect{fill:rgb(220, 232, 247)!important;stroke:rgb(42, 91, 154)!important;color:rgb(17, 34, 34)!important;}#d43 .db polygon{fill:rgb(220, 232, 247)!important;stroke:rgb(42, 91, 154)!important;color:rgb(17, 34, 34)!important;}#d43 .db ellipse{fill:rgb(220, 232, 247)!important;stroke:rgb(42, 91, 154)!important;color:rgb(17, 34, 34)!important;}#d43 .db circle{fill:rgb(220, 232, 247)!important;stroke:rgb(42, 91, 154)!important;color:rgb(17, 34, 34)!important;}#d43 .db path{fill:rgb(220, 232, 247)!important;stroke:rgb(42, 91, 154)!important;color:rgb(17, 34, 34)!important;}#d43 .db tspan{fill:rgb(17, 34, 34)!important;}#d43 .err rect{fill:rgb(251, 218, 218)!important;stroke:rgb(180, 35, 24)!important;color:rgb(90, 13, 13)!important;}#d43 .err polygon{fill:rgb(251, 218, 218)!important;stroke:rgb(180, 35, 24)!important;color:rgb(90, 13, 13)!important;}#d43 .err ellipse{fill:rgb(251, 218, 218)!important;stroke:rgb(180, 35, 24)!important;color:rgb(90, 13, 13)!important;}#d43 .err circle{fill:rgb(251, 218, 218)!important;stroke:rgb(180, 35, 24)!important;color:rgb(90, 13, 13)!important;}#d43 .err path{fill:rgb(251, 218, 218)!important;stroke:rgb(180, 35, 24)!important;color:rgb(90, 13, 13)!important;}#d43 .err tspan{fill:rgb(90, 13, 13)!important;}</style><g><marker id="d43_flowchart-v2-pointEnd" class="marker flowchart-v2" viewBox="0 0 10 10" refX="5" refY="5" markerUnits="userSpaceOnUse" markerWidth="8" markerHeight="8" orient="auto"><path d="M 0 0 L 10 5 L 0 10 z" class="arrowMarkerPath" style="stroke-width: 1; stroke-dasharray: 1, 0;"></path></marker><marker id="d43_flowchart-v2-pointStart" class="marker flowchart-v2" viewBox="0 0 10 10" refX="4.5" refY="5" markerUnits="userSpaceOnUse" markerWidth="8" markerHeight="8" orient="auto"><path d="M 0 5 L 10 10 L 10 0 z" class="arrowMarkerPath" style="stroke-width: 1; stroke-dasharray: 1, 0;"></path></marker><marker id="d43_flowchart-v2-pointEnd-margin" class="marker flowchart-v2" viewBox="0 0 11.5 14" refX="11.5" refY="7" markerUnits="userSpaceOnUse" markerWidth="10.5" markerHeight="14" orient="auto"><path d="M 0 0 L 11.5 7 L 0 14 z" class="arrowMarkerPath" style="stroke-width: 0; stroke-dasharray: 1, 0;"></path></marker><marker id="d43_flowchart-v2-pointStart-margin" class="marker flowchart-v2" viewBox="0 0 11.5 14" refX="1" refY="7" markerUnits="userSpaceOnUse" markerWidth="11.5" markerHeight="14" orient="auto"><polygon points="0,7 11.5,14 11.5,0" class="arrowMarkerPath" style="stroke-width: 0; stroke-dasharray: 1, 0;"></polygon></marker><marker id="d43_flowchart-v2-circleEnd" class="marker flowchart-v2" viewBox="0 0 10 10" refX="11" refY="5" markerUnits="userSpaceOnUse" markerWidth="11" markerHeight="11" orient="auto"><circle cx="5" cy="5" r="5" class="arrowMarkerPath" style="stroke-width: 1; stroke-dasharray: 1, 0;"></circle></marker><marker id="d43_flowchart-v2-circleStart" class="marker flowchart-v2" viewBox="0 0 10 10" refX="-1" refY="5" markerUnits="userSpaceOnUse" markerWidth="11" markerHeight="11" orient="auto"><circle cx="5" cy="5" r="5" class="arrowMarkerPath" style="stroke-width: 1; stroke-dasharray: 1, 0;"></circle></marker><marker id="d43_flowchart-v2-circleEnd-margin" class="marker flowchart-v2" viewBox="0 0 10 10" refY="5" refX="12.25" markerUnits="userSpaceOnUse" markerWidth="14" markerHeight="14" orient="auto"><circle cx="5" cy="5" r="5" class="arrowMarkerPath" style="stroke-width: 0; stroke-dasharray: 1, 0;"></circle></marker><marker id="d43_flowchart-v2-circleStart-margin" class="marker flowchart-v2" viewBox="0 0 10 10" refX="-2" refY="5" markerUnits="userSpaceOnUse" markerWidth="14" markerHeight="14" orient="auto"><circle cx="5" cy="5" r="5" class="arrowMarkerPath" style="stroke-width: 0; stroke-dasharray: 1, 0;"></circle></marker><marker id="d43_flowchart-v2-crossEnd" class="marker cross flowchart-v2" viewBox="0 0 11 11" refX="12" refY="5.2" markerUnits="userSpaceOnUse" markerWidth="11" markerHeight="11" orient="auto"><path d="M 1,1 l 9,9 M 10,1 l -9,9" class="arrowMarkerPath" style="stroke-width: 2; stroke-dasharray: 1, 0;"></path></marker><marker id="d43_flowchart-v2-crossStart" class="marker cross flowchart-v2" viewBox="0 0 11 11" refX="-1" refY="5.2" markerUnits="userSpaceOnUse" markerWidth="11" markerHeight="11" orient="auto"><path d="M 1,1 l 9,9 M 10,1 l -9,9" class="arrowMarkerPath" style="stroke-width: 2; stroke-dasharray: 1, 0;"></path></marker><marker id="d43_flowchart-v2-crossEnd-margin" class="marker cross flowchart-v2" viewBox="0 0 15 15" refX="17.7" refY="7.5" markerUnits="userSpaceOnUse" markerWidth="12" markerHeight="12" orient="auto"><path d="M 1,1 L 14,14 M 1,14 L 14,1" class="arrowMarkerPath" style="stroke-width: 2.5;"></path></marker><marker id="d43_flowchart-v2-crossStart-margin" class="marker cross flowchart-v2" viewBox="0 0 15 15" refX="-3.5" refY="7.5" markerUnits="userSpaceOnUse" markerWidth="12" markerHeight="12" orient="auto"><path d="M 1,1 L 14,14 M 1,14 L 14,1" class="arrowMarkerPath" style="stroke-width: 2.5; stroke-dasharray: 1, 0;"></path></marker><g class="root"><g class="clusters"></g><g class="edgePaths"><path d="M138.5,47.5L138.417,51.583C138.333,55.667,138.167,63.833,138.083,71.417C138,79,138,86,138,89.5L138,93" id="d43-L_O_G_0" class=" edge-thickness-normal edge-pattern-solid edge-thickness-normal edge-pattern-solid flowchart-link" style=";" data-edge="true" data-et="edge" data-id="L_O_G_0" data-points="W3sieCI6MTM4LjUsInkiOjQ3LjV9LHsieCI6MTM4LCJ5Ijo3Mn0seyJ4IjoxMzgsInkiOjk3fV0=" data-look="classic" marker-end="url(#d43_flowchart-v2-pointEnd)"></path><path d="M138,223L138,227.167C138,231.333,138,239.667,138,247.333C138,255,138,262,138,265.5L138,269" id="d43-L_G_EV_0" class=" edge-thickness-normal edge-pattern-solid edge-thickness-normal edge-pattern-solid flowchart-link" style=";" data-edge="true" data-et="edge" data-id="L_G_EV_0" data-points="W3sieCI6MTM4LCJ5IjoyMjN9LHsieCI6MTM4LCJ5IjoyNDh9LHsieCI6MTM4LCJ5IjoyNzN9XQ==" data-look="classic" marker-end="url(#d43_flowchart-v2-pointEnd)"></path><path d="M138,375L138,379.167C138,383.333,138,391.667,138,399.333C138,407,138,414,138,417.5L138,421" id="d43-L_EV_SC_0" class=" edge-thickness-normal edge-pattern-solid edge-thickness-normal edge-pattern-solid flowchart-link" style=";" data-edge="true" data-et="edge" data-id="L_EV_SC_0" data-points="W3sieCI6MTM4LCJ5IjozNzV9LHsieCI6MTM4LCJ5Ijo0MDB9LHsieCI6MTM4LCJ5Ijo0MjV9XQ==" data-look="classic" marker-end="url(#d43_flowchart-v2-pointEnd)"></path><path d="M138,503L138,507.167C138,511.333,138,519.667,138,527.333C138,535,138,542,138,545.5L138,549" id="d43-L_SC_OFF_0" class=" edge-thickness-normal edge-pattern-solid edge-thickness-normal edge-pattern-solid flowchart-link" style=";" data-edge="true" data-et="edge" data-id="L_SC_OFF_0" data-points="W3sieCI6MTM4LCJ5Ijo1MDN9LHsieCI6MTM4LCJ5Ijo1Mjh9LHsieCI6MTM4LCJ5Ijo1NTN9XQ==" data-look="classic" marker-end="url(#d43_flowchart-v2-pointEnd)"></path><path d="M135.276,655.589L134.924,662.043C134.572,668.497,133.868,681.405,133.516,693.192C133.164,704.979,133.164,715.646,133.164,720.979L133.164,726.313" id="d43-L_OFF_OE_0" class=" edge-thickness-normal edge-pattern-solid edge-thickness-normal edge-pattern-solid flowchart-link" style=";" data-edge="true" data-et="edge" data-id="L_OFF_OE_0" data-points="W3sieCI6MTM1LjI3NjMyNDk5NzkxMDkzLCJ5Ijo2NTUuNTg4ODI0OTk3OTEwOX0seyJ4IjoxMzMuMTY0MDYyNSwieSI6Njk0LjMxMjV9LHsieCI6MTMzLjE2NDA2MjUsInkiOjczMC4zMTI1fV0=" data-look="classic" marker-end="url(#d43_flowchart-v2-pointEnd)"></path><path d="M177.086,619.227L213.13,631.741C249.174,644.255,321.263,669.284,357.307,687.132C393.352,704.979,393.352,715.646,393.352,720.979L393.352,726.313" id="d43-L_OFF_P_0" class=" edge-thickness-normal edge-pattern-solid edge-thickness-normal edge-pattern-solid flowchart-link" style=";" data-edge="true" data-et="edge" data-id="L_OFF_P_0" data-points="W3sieCI6MTc3LjA4NTkwMjE5MjY3MzY3LCJ5Ijo2MTkuMjI2NTk3ODA3MzI2NH0seyJ4IjozOTMuMzUxNTYyNSwieSI6Njk0LjMxMjV9LHsieCI6MzkzLjM1MTU2MjUsInkiOjczMC4zMTI1fV0=" data-look="classic" marker-end="url(#d43_flowchart-v2-pointEnd)"></path><path d="M393.352,808.313L393.352,812.479C393.352,816.646,393.352,824.979,393.352,832.646C393.352,840.313,393.352,847.313,393.352,850.813L393.352,854.313" id="d43-L_P_PRE_0" class=" edge-thickness-normal edge-pattern-solid edge-thickness-normal edge-pattern-solid flowchart-link" style=";" data-edge="true" data-et="edge" data-id="L_P_PRE_0" data-points="W3sieCI6MzkzLjM1MTU2MjUsInkiOjgwOC4zMTI1fSx7IngiOjM5My4zNTE1NjI1LCJ5Ijo4MzMuMzEyNX0seyJ4IjozOTMuMzUxNTYyNSwieSI6ODU4LjMxMjV9XQ==" data-look="classic" marker-end="url(#d43_flowchart-v2-pointEnd)"></path><path d="M393.352,936.313L393.352,940.479C393.352,944.646,393.352,952.979,393.352,960.646C393.352,968.313,393.352,975.313,393.352,978.813L393.352,982.313" id="d43-L_PRE_A_0" class=" edge-thickness-normal edge-pattern-solid edge-thickness-normal edge-pattern-solid flowchart-link" style=";" data-edge="true" data-et="edge" data-id="L_PRE_A_0" data-points="W3sieCI6MzkzLjM1MTU2MjUsInkiOjkzNi4zMTI1fSx7IngiOjM5My4zNTE1NjI1LCJ5Ijo5NjEuMzEyNX0seyJ4IjozOTMuMzUxNTYyNSwieSI6OTg2LjMxMjV9XQ==" data-look="classic" marker-end="url(#d43_flowchart-v2-pointEnd)"></path><path d="M324.76,1177.127L305.195,1194.559C285.629,1211.991,246.498,1246.855,226.933,1281.778C207.367,1316.701,207.367,1351.682,207.367,1369.173L207.367,1386.664" id="d43-L_A_AE_0" class=" edge-thickness-normal edge-pattern-solid edge-thickness-normal edge-pattern-solid flowchart-link" style=";" data-edge="true" data-et="edge" data-id="L_A_AE_0" data-points="W3sieCI6MzI0Ljc2MDExNTE1MzUwMSwieSI6MTE3Ny4xMjczMDI2NTM1MDF9LHsieCI6MjA3LjM2NzE4NzUsInkiOjEyODEuNzE4NzV9LHsieCI6MjA3LjM2NzE4NzUsInkiOjEzOTAuNjY0MDYyNX1d" data-look="classic" marker-end="url(#d43_flowchart-v2-pointEnd)"></path><path d="M412.9,1226.17L414.543,1235.428C416.186,1244.686,419.472,1263.203,421.115,1289.952C422.758,1316.701,422.758,1351.682,422.758,1369.173L422.758,1386.664" id="d43-L_A_NP_0" class=" edge-thickness-normal edge-pattern-solid edge-thickness-normal edge-pattern-solid flowchart-link" style=";" data-edge="true" data-et="edge" data-id="L_A_NP_0" data-points="W3sieCI6NDEyLjg5OTk5NTM3MDE4NDk3LCJ5IjoxMjI2LjE3MDMxNzEyOTgxNX0seyJ4Ijo0MjIuNzU3ODEyNSwieSI6MTI4MS43MTg3NX0seyJ4Ijo0MjIuNzU3ODEyNSwieSI6MTM5MC42NjQwNjI1fV0=" data-look="classic" marker-end="url(#d43_flowchart-v2-pointEnd)"></path><path d="M472.468,1166.602L502.475,1185.788C532.481,1204.974,592.495,1243.347,622.501,1267.866C652.508,1292.385,652.508,1303.052,652.508,1308.385L652.508,1313.719" id="d43-L_A_B_0" class=" edge-thickness-normal edge-pattern-solid edge-thickness-normal edge-pattern-solid flowchart-link" style=";" data-edge="true" data-et="edge" data-id="L_A_B_0" data-points="W3sieCI6NDcyLjQ2ODAzNjAxMTQ1NiwieSI6MTE2Ni42MDIyNzY0ODg1NDR9LHsieCI6NjUyLjUwNzgxMjUsInkiOjEyODEuNzE4NzV9LHsieCI6NjUyLjUwNzgxMjUsInkiOjEzMTcuNzE4NzV9XQ==" data-look="classic" marker-end="url(#d43_flowchart-v2-pointEnd)"></path><path d="M605.975,1471.077L593.992,1484.832C582.008,1498.588,558.041,1526.099,546.058,1558.9C534.074,1591.701,534.074,1629.792,534.074,1648.837L534.074,1667.883" id="d43-L_B_NA_0" class=" edge-thickness-normal edge-pattern-solid edge-thickness-normal edge-pattern-solid flowchart-link" style=";" data-edge="true" data-et="edge" data-id="L_B_NA_0" data-points="W3sieCI6NjA1Ljk3NTMyNzg5OTIxODQsInkiOjE0NzEuMDc2ODkwMzk5MjE4NH0seyJ4Ijo1MzQuMDc0MjE4NzUsInkiOjE1NTMuNjA5Mzc1fSx7IngiOjUzNC4wNzQyMTg3NSwieSI6MTY3MS44ODI4MTI1fV0=" data-look="classic" marker-end="url(#d43_flowchart-v2-pointEnd)"></path><path d="M699.04,1471.077L711.024,1484.832C723.007,1498.588,746.974,1526.099,758.958,1545.187C770.941,1564.276,770.941,1574.943,770.941,1580.276L770.941,1585.609" id="d43-L_B_M_0" class=" edge-thickness-normal edge-pattern-solid edge-thickness-normal edge-pattern-solid flowchart-link" style=";" data-edge="true" data-et="edge" data-id="L_B_M_0" data-points="W3sieCI6Njk5LjA0MDI5NzEwMDc4MTYsInkiOjE0NzEuMDc2ODkwMzk5MjE4NH0seyJ4Ijo3NzAuOTQxNDA2MjUsInkiOjE1NTMuNjA5Mzc1fSx7IngiOjc3MC45NDE0MDYyNSwieSI6MTU4OS42MDkzNzV9XQ==" data-look="classic" marker-end="url(#d43_flowchart-v2-pointEnd)"></path><path d="M722.377,1759.592L711.103,1773.686C699.828,1787.78,677.279,1815.968,666.005,1846.217C654.73,1876.466,654.73,1908.776,654.73,1924.931L654.73,1941.086" id="d43-L_M_MD_0" class=" edge-thickness-normal edge-pattern-solid edge-thickness-normal edge-pattern-solid flowchart-link" style=";" data-edge="true" data-et="edge" data-id="L_M_MD_0" data-points="W3sieCI6NzIyLjM3NzI0NzgxNTIwNzYsInkiOjE3NTkuNTkyMDkxNTY1MjA3N30seyJ4Ijo2NTQuNzMwNDY4NzUsInkiOjE4NDQuMTU2MjV9LHsieCI6NjU0LjczMDQ2ODc1LCJ5IjoxOTQ1LjA4NTkzNzV9XQ==" data-look="classic" marker-end="url(#d43_flowchart-v2-pointEnd)"></path><path d="M819.506,1759.592L830.78,1773.686C842.054,1787.78,864.603,1815.968,875.878,1835.396C887.152,1854.823,887.152,1865.49,887.152,1870.823L887.152,1876.156" id="d43-L_M_K_0" class=" edge-thickness-normal edge-pattern-solid edge-thickness-normal edge-pattern-solid flowchart-link" style=";" data-edge="true" data-et="edge" data-id="L_M_K_0" data-points="W3sieCI6ODE5LjUwNTU2NDY4NDc5MjQsInkiOjE3NTkuNTkyMDkxNTY1MjA3N30seyJ4Ijo4ODcuMTUyMzQzNzUsInkiOjE4NDQuMTU2MjV9LHsieCI6ODg3LjE1MjM0Mzc1LCJ5IjoxODgwLjE1NjI1fV0=" data-look="classic" marker-end="url(#d43_flowchart-v2-pointEnd)"></path><path d="M817.752,1994.615L763.638,2012.182C709.523,2029.749,601.295,2064.882,547.181,2105.866C493.066,2146.849,493.066,2193.682,493.066,2217.099L493.066,2240.516" id="d43-L_K_NF_0" class=" edge-thickness-normal edge-pattern-solid edge-thickness-normal edge-pattern-solid flowchart-link" style=";" data-edge="true" data-et="edge" data-id="L_K_NF_0" data-points="W3sieCI6ODE3Ljc1MTc0NDcxMTM4MDIsInkiOjE5OTQuNjE1MDI1OTYxMzh9LHsieCI6NDkzLjA2NjQwNjI1LCJ5IjoyMTAwLjAxNTYyNX0seyJ4Ijo0OTMuMDY2NDA2MjUsInkiOjIyNDQuNTE1NjI1fV0=" data-look="classic" marker-end="url(#d43_flowchart-v2-pointEnd)"></path><path d="M836.839,2013.702L819.447,2028.088C802.055,2042.473,767.272,2071.245,749.88,2109.047C732.488,2146.849,732.488,2193.682,732.488,2217.099L732.488,2240.516" id="d43-L_K_PART2_0" class=" edge-thickness-normal edge-pattern-solid edge-thickness-normal edge-pattern-solid flowchart-link" style=";" data-edge="true" data-et="edge" data-id="L_K_PART2_0" data-points="W3sieCI6ODM2LjgzOTA2MjExMTIzMjUsInkiOjIwMTMuNzAyMzQzMzYxMjMyNH0seyJ4Ijo3MzIuNDg4MjgxMjUsInkiOjIxMDAuMDE1NjI1fSx7IngiOjczMi40ODgyODEyNSwieSI6MjI0NC41MTU2MjV9XQ==" data-look="classic" marker-end="url(#d43_flowchart-v2-pointEnd)"></path><path d="M937.466,2013.702L954.857,2028.088C972.249,2042.473,1007.033,2071.245,1024.425,2090.963C1041.816,2110.682,1041.816,2121.349,1041.816,2126.682L1041.816,2132.016" id="d43-L_K_TK_0" class=" edge-thickness-normal edge-pattern-solid edge-thickness-normal edge-pattern-solid flowchart-link" style=";" data-edge="true" data-et="edge" data-id="L_K_TK_0" data-points="W3sieCI6OTM3LjQ2NTYyNTM4ODc2NzUsInkiOjIwMTMuNzAyMzQzMzYxMjMyNH0seyJ4IjoxMDQxLjgxNjQwNjI1LCJ5IjoyMTAwLjAxNTYyNX0seyJ4IjoxMDQxLjgxNjQwNjI1LCJ5IjoyMTM2LjAxNTYyNX1d" data-look="classic" marker-end="url(#d43_flowchart-v2-pointEnd)"></path><path d="M979.116,2344.315L965.02,2360.682C950.924,2377.049,922.731,2409.782,908.635,2431.399C894.539,2453.016,894.539,2463.516,894.539,2468.766L894.539,2474.016" id="d43-L_TK_TF_0" class=" edge-thickness-normal edge-pattern-solid edge-thickness-normal edge-pattern-solid flowchart-link" style=";" data-edge="true" data-et="edge" data-id="L_TK_TF_0" data-points="W3sieCI6OTc5LjExNjEyMTUxNDA1NTcsInkiOjIzNDQuMzE1MzQwMjY0MDU2fSx7IngiOjg5NC41MzkwNjI1LCJ5IjoyNDQyLjUxNTYyNX0seyJ4Ijo4OTQuNTM5MDYyNSwieSI6MjQ3OC4wMTU2MjV9XQ==" data-look="classic" marker-end="url(#d43_flowchart-v2-pointEnd)"></path><path d="M1104.517,2344.315L1118.613,2360.682C1132.709,2377.049,1160.901,2409.782,1174.998,2433.399C1189.094,2457.016,1189.094,2471.516,1189.094,2478.766L1189.094,2486.016" id="d43-L_TK_TW_0" class=" edge-thickness-normal edge-pattern-solid edge-thickness-normal edge-pattern-solid flowchart-link" style=";" data-edge="true" data-et="edge" data-id="L_TK_TW_0" data-points="W3sieCI6MTEwNC41MTY2OTA5ODU5NDQzLCJ5IjoyMzQ0LjMxNTM0MDI2NDA1Nn0seyJ4IjoxMTg5LjA5Mzc1LCJ5IjoyNDQyLjUxNTYyNX0seyJ4IjoxMTg5LjA5Mzc1LCJ5IjoyNDkwLjAxNTYyNX1d" data-look="classic" marker-end="url(#d43_flowchart-v2-pointEnd)"></path></g><g class="edgeLabels"><g class="edgeLabel"><g class="label" data-id="L_O_G_0" transform="translate(0, 0)"><text y="-10.1" text-anchor="middle"><tspan class="text-outer-tspan row" x="0" y="-0.1em" dy="1.1em" text-anchor="middle"></tspan></text></g></g><g><rect class="background" style="stroke: none"></rect></g><g class="edgeLabel"><g class="label" data-id="L_G_EV_0" transform="translate(0, 0)"><text y="-10.1" text-anchor="middle"><tspan class="text-outer-tspan row" x="0" y="-0.1em" dy="1.1em" text-anchor="middle"></tspan></text></g></g><g><rect class="background" style="stroke: none"></rect></g><g class="edgeLabel"><g class="label" data-id="L_EV_SC_0" transform="translate(0, 0)"><text y="-10.1" text-anchor="middle"><tspan class="text-outer-tspan row" x="0" y="-0.1em" dy="1.1em" text-anchor="middle"></tspan></text></g></g><g><rect class="background" style="stroke: none"></rect></g><g class="edgeLabel"><g class="label" data-id="L_SC_OFF_0" transform="translate(0, 0)"><text y="-10.1" text-anchor="middle"><tspan class="text-outer-tspan row" x="0" y="-0.1em" dy="1.1em" text-anchor="middle"></tspan></text></g></g><g><rect class="background" style="stroke: none"></rect></g><g class="edgeLabel" transform="translate(133.1640625, 694.3125)"><g class="label" data-id="L_OFF_OE_0" transform="translate(0, -11)"><g><rect class="background" style="" x="-14.453125" y="0" width="28.90625" height="22"></rect><text y="-10.1" text-anchor="middle" style=""><tspan class="text-outer-tspan row" x="0" y="-0.1em" dy="1.1em" text-anchor="middle"><tspan font-style="normal" class="text-inner-tspan" font-weight="normal">yes</tspan></tspan></text></g></g></g><g class="edgeLabel" transform="translate(393.3515625, 694.3125)"><g class="label" data-id="L_OFF_P_0" transform="translate(-0.05078125, -10.5)"><g><rect class="background" style="" x="-10.8984375" y="0" width="21.8984375" height="21"></rect><text y="-10.1" text-anchor="middle" style=""><tspan class="text-outer-tspan row" x="0" y="-0.1em" dy="1.1em" text-anchor="middle"><tspan font-style="normal" class="text-inner-tspan" font-weight="normal">no</tspan></tspan></text></g></g></g><g class="edgeLabel"><g class="label" data-id="L_P_PRE_0" transform="translate(0, 0)"><text y="-10.1" text-anchor="middle"><tspan class="text-outer-tspan row" x="0" y="-0.1em" dy="1.1em" text-anchor="middle"></tspan></text></g></g><g><rect class="background" style="stroke: none"></rect></g><g class="edgeLabel"><g class="label" data-id="L_PRE_A_0" transform="translate(0, 0)"><text y="-10.1" text-anchor="middle"><tspan class="text-outer-tspan row" x="0" y="-0.1em" dy="1.1em" text-anchor="middle"></tspan></text></g></g><g><rect class="background" style="stroke: none"></rect></g><g class="edgeLabel" transform="translate(207.3671875, 1281.71875)"><g class="label" data-id="L_A_AE_0" transform="translate(0, -11)"><g><rect class="background" style="" x="-44.703125" y="0" width="89.40625" height="22"></rect><text y="-10.1" text-anchor="middle" style=""><tspan class="text-outer-tspan row" x="0" y="-0.1em" dy="1.1em" text-anchor="middle"><tspan font-style="normal" class="text-inner-tspan" font-weight="normal">grant</tspan><tspan font-style="normal" class="text-inner-tspan" font-weight="normal"> ended</tspan></tspan></text></g></g></g><g class="edgeLabel" transform="translate(422.7578125, 1281.71875)"><g class="label" data-id="L_A_NP_0" transform="translate(-0.05078125, -10.5)"><g><rect class="background" style="" x="-10.8984375" y="0" width="21.8984375" height="21"></rect><text y="-10.1" text-anchor="middle" style=""><tspan class="text-outer-tspan row" x="0" y="-0.1em" dy="1.1em" text-anchor="middle"><tspan font-style="normal" class="text-inner-tspan" font-weight="normal">no</tspan></tspan></text></g></g></g><g class="edgeLabel" transform="translate(652.5078125, 1281.71875)"><g class="label" data-id="L_A_B_0" transform="translate(0, -11)"><g><rect class="background" style="" x="-14.453125" y="0" width="28.90625" height="22"></rect><text y="-10.1" text-anchor="middle" style=""><tspan class="text-outer-tspan row" x="0" y="-0.1em" dy="1.1em" text-anchor="middle"><tspan font-style="normal" class="text-inner-tspan" font-weight="normal">yes</tspan></tspan></text></g></g></g><g class="edgeLabel" transform="translate(534.07421875, 1553.609375)"><g class="label" data-id="L_B_NA_0" transform="translate(-0.05078125, -10.5)"><g><rect class="background" style="" x="-10.8984375" y="0" width="21.8984375" height="21"></rect><text y="-10.1" text-anchor="middle" style=""><tspan class="text-outer-tspan row" x="0" y="-0.1em" dy="1.1em" text-anchor="middle"><tspan font-style="normal" class="text-inner-tspan" font-weight="normal">no</tspan></tspan></text></g></g></g><g class="edgeLabel" transform="translate(770.94140625, 1553.609375)"><g class="label" data-id="L_B_M_0" transform="translate(0, -11)"><g><rect class="background" style="" x="-14.453125" y="0" width="28.90625" height="22"></rect><text y="-10.1" text-anchor="middle" style=""><tspan class="text-outer-tspan row" x="0" y="-0.1em" dy="1.1em" text-anchor="middle"><tspan font-style="normal" class="text-inner-tspan" font-weight="normal">yes</tspan></tspan></text></g></g></g><g class="edgeLabel" transform="translate(654.73046875, 1844.15625)"><g class="label" data-id="L_M_MD_0" transform="translate(0, -11)"><g><rect class="background" style="" x="-14.453125" y="0" width="28.90625" height="22"></rect><text y="-10.1" text-anchor="middle" style=""><tspan class="text-outer-tspan row" x="0" y="-0.1em" dy="1.1em" text-anchor="middle"><tspan font-style="normal" class="text-inner-tspan" font-weight="normal">yes</tspan></tspan></text></g></g></g><g class="edgeLabel" transform="translate(887.15234375, 1844.15625)"><g class="label" data-id="L_M_K_0" transform="translate(-0.05078125, -10.5)"><g><rect class="background" style="" x="-10.8984375" y="0" width="21.8984375" height="21"></rect><text y="-10.1" text-anchor="middle" style=""><tspan class="text-outer-tspan row" x="0" y="-0.1em" dy="1.1em" text-anchor="middle"><tspan font-style="normal" class="text-inner-tspan" font-weight="normal">no</tspan></tspan></text></g></g></g><g class="edgeLabel" transform="translate(493.06640625, 2100.015625)"><g class="label" data-id="L_K_NF_0" transform="translate(-0.3359375, -10.5)"><g><rect class="background" style="" x="-26.4609375" y="0" width="53.59375" height="21"></rect><text y="-10.1" text-anchor="middle" style=""><tspan class="text-outer-tspan row" x="0" y="-0.1em" dy="1.1em" text-anchor="middle"><tspan font-style="normal" class="text-inner-tspan" font-weight="normal">neither</tspan></tspan></text></g></g></g><g class="edgeLabel" transform="translate(732.48828125, 2100.015625)"><g class="label" data-id="L_K_PART2_0" transform="translate(0, -11)"><g><rect class="background" style="" x="-30.0234375" y="0" width="60.046875" height="22"></rect><text y="-10.1" text-anchor="middle" style=""><tspan class="text-outer-tspan row" x="0" y="-0.1em" dy="1.1em" text-anchor="middle"><tspan font-style="normal" class="text-inner-tspan" font-weight="normal">booking</tspan></tspan></text></g></g></g><g class="edgeLabel" transform="translate(1041.81640625, 2100.015625)"><g class="label" data-id="L_K_TK_0" transform="translate(-0.27734375, -10.5)"><g><rect class="background" style="" x="-20.671875" y="0" width="41.8984375" height="21"></rect><text y="-10.1" text-anchor="middle" style=""><tspan class="text-outer-tspan row" x="0" y="-0.1em" dy="1.1em" text-anchor="middle"><tspan font-style="normal" class="text-inner-tspan" font-weight="normal">ticket</tspan></tspan></text></g></g></g><g class="edgeLabel" transform="translate(894.5390625, 2442.515625)"><g class="label" data-id="L_TK_TF_0" transform="translate(0, -10.5)"><g><rect class="background" style="" x="-12.2265625" y="0" width="24.453125" height="21"></rect><text y="-10.1" text-anchor="middle" style=""><tspan class="text-outer-tspan row" x="0" y="-0.1em" dy="1.1em" text-anchor="middle"><tspan font-style="normal" class="text-inner-tspan" font-weight="normal">fail</tspan></tspan></text></g></g></g><g class="edgeLabel" transform="translate(1189.09375, 2442.515625)"><g class="label" data-id="L_TK_TW_0" transform="translate(-0.49609375, -10.5)"><g><rect class="background" style="" x="-10.453125" y="0" width="21.8984375" height="21"></rect><text y="-10.1" text-anchor="middle" style=""><tspan class="text-outer-tspan row" x="0" y="-0.1em" dy="1.1em" text-anchor="middle"><tspan font-style="normal" class="text-inner-tspan" font-weight="normal">ok</tspan></tspan></text></g></g></g></g><g class="nodes"><g class="node default start " id="d43-flowchart-O-0" data-look="classic" transform="translate(138, 27.5)"><g class="basic label-container outer-path"><path d="M-24.890625 -19.5 C-13.765393445214961 -19.5, -2.6401618904299227 -19.5, 24.890625 -19.5 C24.890625 -19.5, 24.890625 -19.5, 24.890625 -19.5 C25.282096515991224 -19.487446270435242, 25.673568031982448 -19.474892540870485, 26.1399942896239 -19.45993515863156 C26.43238621782586 -19.431728460970657, 26.724778146027823 -19.403521763309755, 27.384229652847864 -19.3399052695533 C27.759580445599745 -19.279221464270048, 28.134931238351626 -19.218537658986797, 28.61821825967676 -19.140403561325776 C28.903332498610403 -19.075328096833456, 29.18844673754405 -19.01025263234114, 29.83688938623539 -18.862249829261074 C30.153441368904385 -18.76829886242018, 30.469993351573383 -18.674347895579288, 31.035235251460602 -18.50658706670804 C31.481197507796228 -18.342468833946622, 31.927159764131854 -18.178350601185205, 32.2083315951478 -18.074876768247425 C32.58873109669814 -17.906485193061375, 32.969130598248476 -17.73809361787533, 33.35135791279238 -17.568892924097174 C33.73015237019018 -17.37127609830217, 34.108946827587985 -17.173659272507166, 34.45961726407678 -16.990714730406097 C34.86254071413826 -16.74646016713781, 35.26546416419975 -16.502205603869516, 35.5285555736057 -16.342718045390892 C35.82255877821964 -16.13763413704581, 36.11656198283357 -15.93255022870073, 36.55378034457871 -15.627565626425154 C36.93133170046695 -15.326478467167814, 37.308883056355185 -15.025391307910473, 37.531078708501866 -14.848196188198123 C37.7836146268744 -14.61884974886644, 38.03615054524694 -14.389503309534756, 38.45643473676799 -14.007812326905688 C38.7837256392507 -13.669857599009463, 39.111016541733406 -13.331902871113238, 39.32604594296865 -13.10986736009568 C39.597389825754945 -12.791131395470574, 39.86873370854124 -12.472395430845467, 40.13633890812658 -12.158051136245305 C40.32906949167184 -11.899809712412024, 40.5218000752171 -11.64156828857874, 40.883983964640635 -11.156274872382312 C41.0974672266773 -10.82830725361142, 41.310950488713964 -10.50033963484053, 41.56590887860425 -10.108655082055241 C41.70932076893182 -9.854012748750026, 41.852732659259395 -9.599370415444813, 42.179311474273504 -9.019496659696287 C42.3588297266884 -8.64672316748149, 42.538347979103285 -8.273949675266692, 42.72167114880834 -7.893275190886684 C42.89899671523298 -7.455277613461231, 43.07632228165762 -7.0172800360357765, 43.190759229970325 -6.734618561215508 C43.270099417515425 -6.495658557471852, 43.349439605060525 -6.256698553728197, 43.58464813421488 -5.548287939305138 C43.68055240199392 -5.182563401091067, 43.77645666977296 -4.816838862876996, 43.90171928754556 -4.339158212148133 C43.97835991902306 -3.9456247675143348, 44.05500055050057 -3.552091322880537, 44.140669776581774 -3.1121979531509023 C44.1993065541537 -2.657422685444494, 44.25794333172562 -2.202647417738086, 44.30051770250937 -1.872449005199798 C44.32085094432706 -1.5557423511917912, 44.34118418614476 -1.2390356971837844, 44.38060621591342 -0.6250057626472757 C44.38060621591342 -0.16771516755599608, 44.38060621591342 0.28957542753528354, 44.38060621591342 0.625005762647271 C44.36034816848591 0.940541203332177, 44.34009012105841 1.256076644017083, 44.30051770250937 1.8724490051997846 C44.2460843608712 2.294623253866306, 44.19165101923303 2.7167975025328266, 44.140669776581774 3.1121979531508885 C44.07001667990304 3.4749866720588996, 43.999363583224316 3.8377753909669106, 43.90171928754556 4.339158212148129 C43.779232792294096 4.806252304524808, 43.65674629704264 5.273346396901486, 43.58464813421489 5.548287939305125 C43.47213088887254 5.887171955087788, 43.35961364353019 6.22605597087045, 43.190759229970325 6.734618561215495 C43.020840675695695 7.154320675425601, 42.85092212142106 7.574022789635708, 42.72167114880834 7.893275190886679 C42.509756739557176 8.333319995938712, 42.29784233030601 8.773364800990745, 42.179311474273504 9.019496659696284 C42.02789941627081 9.288344100813495, 41.876487358268115 9.557191541930708, 41.56590887860425 10.108655082055236 C41.356336551616835 10.430614454357368, 41.14676422462942 10.7525738266595, 40.88398396464064 11.156274872382301 C40.71158499917214 11.387273780241244, 40.53918603370363 11.618272688100188, 40.13633890812658 12.158051136245302 C39.832569454053505 12.51487602197114, 39.52879999998042 12.871700907696981, 39.32604594296866 13.10986736009567 C39.0938710954684 13.349606952049175, 38.86169624796813 13.58934654400268, 38.45643473676799 14.007812326905684 C38.18405090250042 14.255184118306165, 37.911667068232845 14.502555909706645, 37.53107870850189 14.848196188198111 C37.162313895869715 15.14227631302847, 36.79354908323755 15.43635643785883, 36.55378034457871 15.627565626425152 C36.22622763089258 15.856052219964159, 35.89867491720645 16.084538813503165, 35.52855557360571 16.34271804539089 C35.164981237686426 16.56311894442511, 34.80140690176715 16.783519843459334, 34.45961726407678 16.990714730406093 C34.11660490394782 17.169664058975474, 33.77359254381885 17.34861338754485, 33.35135791279239 17.56889292409717 C32.96712887446712 17.738979721614307, 32.582899836141856 17.909066519131443, 32.208331595147804 18.07487676824742 C31.748525353781783 18.244089715472416, 31.288719112415766 18.413302662697415, 31.035235251460616 18.506587066708033 C30.70542264677263 18.604473716557738, 30.37561004208464 18.702360366407444, 29.836889386235413 18.86224982926107 C29.41720626072082 18.95803976397144, 28.997523135206233 19.053829698681806, 28.618218259676766 19.140403561325773 C28.23879246958315 19.20174618057716, 27.859366679489533 19.263088799828548, 27.38422965284788 19.3399052695533 C27.082548122018714 19.369008124007266, 26.78086659118955 19.39811097846123, 26.1399942896239 19.45993515863156 C25.67610705159553 19.474811119453395, 25.212219813567156 19.489687080275232, 24.890625000000004 19.5 C24.890625000000004 19.5, 24.890625 19.5, 24.890625 19.5 C6.423076173546853 19.5, -12.044472652906293 19.5, -24.890624999999996 19.5 C-25.330705048179972 19.48588748941872, -25.770785096359948 19.471774978837434, -26.139994289623893 19.45993515863156 C-26.4987359592578 19.42532778121196, -26.857477628891704 19.390720403792354, -27.38422965284787 19.3399052695533 C-27.777935001031874 19.276254042089484, -28.171640349215874 19.21260281462567, -28.61821825967676 19.140403561325773 C-28.975923971217313 19.058759566914556, -29.33362968275787 18.97711557250334, -29.836889386235388 18.862249829261074 C-30.183352591735236 18.759421368491196, -30.529815797235084 18.65659290772132, -31.03523525146059 18.506587066708043 C-31.444710926809076 18.35589623302815, -31.85418660215756 18.20520539934826, -32.2083315951478 18.074876768247425 C-32.49488579846823 17.948027722765893, -32.78144000178867 17.821178677284358, -33.35135791279238 17.568892924097174 C-33.75348425412464 17.35910386939835, -34.155610595456906 17.149314814699522, -34.45961726407678 16.990714730406097 C-34.87670210240023 16.737875450351847, -35.29378694072368 16.4850361702976, -35.528555573605686 16.3427180453909 C-35.866878629150605 16.106718527611793, -36.20520168469552 15.870719009832687, -36.55378034457871 15.627565626425156 C-36.91907742708821 15.336250924087448, -37.28437450959771 15.04493622174974, -37.531078708501866 14.848196188198125 C-37.843022618133716 14.564896983054044, -38.154966527765566 14.281597777909964, -38.456434736767974 14.007812326905697 C-38.74875591401475 13.705966711383411, -39.04107709126153 13.404121095861123, -39.326045942968655 13.109867360095677 C-39.59530516176801 12.793580160410368, -39.864564380567366 12.477292960725059, -40.136338908126575 12.158051136245307 C-40.31336870991176 11.920847329599889, -40.49039851169694 11.683643522954473, -40.883983964640635 11.156274872382316 C-41.05878143268953 10.887739021766869, -41.23357890073842 10.619203171151424, -41.56590887860425 10.108655082055249 C-41.728017329697664 9.820815111878204, -41.89012578079108 9.532975141701158, -42.179311474273504 9.019496659696289 C-42.37112661672943 8.621188412199999, -42.56294175918534 8.222880164703708, -42.72167114880834 7.893275190886686 C-42.81931229308628 7.652099676757081, -42.916953437364214 7.4109241626274756, -43.190759229970325 6.73461856121551 C-43.33303770581923 6.306098460955217, -43.47531618166814 5.877578360694923, -43.58464813421488 5.5482879393051325 C-43.68024414173003 5.183738931078134, -43.77584014924518 4.819189922851134, -43.90171928754556 4.339158212148136 C-43.97480028608927 3.9639027303006777, -44.047881284632986 3.5886472484532197, -44.140669776581774 3.112197953150904 C-44.18310891215448 2.783048398204201, -44.225548047727195 2.4538988432574977, -44.30051770250937 1.872449005199809 C-44.323669661798355 1.5118385513486838, -44.34682162108734 1.1512280974975586, -44.38060621591342 0.6250057626472781 C-44.38060621591342 0.32559065979035084, -44.38060621591342 0.02617555693342355, -44.38060621591342 -0.6250057626472687 C-44.36287626240321 -0.9011640999295565, -44.345146308893014 -1.1773224372118443, -44.30051770250937 -1.8724490051997822 C-44.239609628970406 -2.3448399959083885, -44.17870155543145 -2.8172309866169947, -44.140669776581774 -3.112197953150895 C-44.085497570458536 -3.395495570943825, -44.030325364335305 -3.6787931887367544, -43.90171928754556 -4.339158212148126 C-43.8060518868263 -4.703979473604402, -43.71038448610705 -5.0688007350606785, -43.58464813421489 -5.548287939305123 C-43.43117286205971 -6.010531006072674, -43.277697589904534 -6.472774072840226, -43.19075922997033 -6.734618561215485 C-43.01271025551322 -7.174402970467283, -42.834661281056114 -7.614187379719081, -42.72167114880834 -7.893275190886676 C-42.54528400377504 -8.259546871628634, -42.36889685874174 -8.625818552370593, -42.179311474273504 -9.019496659696282 C-42.002856894481525 -9.332809634080686, -41.82640231468954 -9.64612260846509, -41.56590887860425 -10.108655082055243 C-41.299470886059126 -10.517975387223297, -41.03303289351401 -10.92729569239135, -40.88398396464064 -11.156274872382308 C-40.64542863853136 -11.475917276531458, -40.40687331242207 -11.79555968068061, -40.13633890812659 -12.158051136245302 C-39.893559874578116 -12.443233203569694, -39.65078084102964 -12.728415270894088, -39.32604594296866 -13.10986736009567 C-39.13595898925781 -13.306147746231263, -38.94587203554696 -13.502428132366855, -38.456434736767996 -14.007812326905677 C-38.2692706554899 -14.17778979343222, -38.0821065742118 -14.347767259958765, -37.53107870850189 -14.848196188198107 C-37.171953292121515 -15.134589151032772, -36.812827875741135 -15.420982113867435, -36.55378034457872 -15.627565626425149 C-36.14800276307391 -15.910618501454511, -35.742225181569104 -16.193671376483874, -35.528555573605715 -16.342718045390885 C-35.210956694821874 -16.53524835212783, -34.89335781603803 -16.727778658864775, -34.45961726407679 -16.99071473040609 C-34.10095205295608 -17.17783014131173, -33.74228684183537 -17.36494555221737, -33.35135791279239 -17.56889292409717 C-33.04333073499032 -17.705247418408568, -32.735303557188246 -17.841601912719963, -32.208331595147804 -18.07487676824742 C-31.758670390113434 -18.240356248322684, -31.309009185079063 -18.405835728397946, -31.03523525146062 -18.506587066708033 C-30.666371060740445 -18.616064022306134, -30.297506870020275 -18.72554097790423, -29.836889386235413 -18.862249829261067 C-29.53468824295764 -18.931225268167463, -29.232487099679865 -19.00020070707386, -28.618218259676766 -19.140403561325773 C-28.30262710493957 -19.191425891777726, -27.987035950202376 -19.242448222229676, -27.384229652847882 -19.3399052695533 C-27.01992366133261 -19.37504943041272, -26.65561766981733 -19.41019359127214, -26.139994289623903 -19.45993515863156 C-25.856946433708057 -19.469011952451552, -25.57389857779221 -19.478088746271542, -24.890625000000007 -19.5 C-24.890625000000004 -19.5, -24.890625000000004 -19.5, -24.890625 -19.5" stroke="none" stroke-width="0" fill="#1f6f43" style="fill:#1f6f43 !important"></path><path d="M-24.890625 -19.5 C-7.975465871260052 -19.5, 8.939693257479895 -19.5, 24.890625 -19.5 M-24.890625 -19.5 C-8.870718456853119 -19.5, 7.149188086293762 -19.5, 24.890625 -19.5 M24.890625 -19.5 C24.890625 -19.5, 24.890625 -19.5, 24.890625 -19.5 M24.890625 -19.5 C24.890625 -19.5, 24.890625 -19.5, 24.890625 -19.5 M24.890625 -19.5 C25.16041153282207 -19.491348471000027, 25.430198065644138 -19.482696942000054, 26.1399942896239 -19.45993515863156 M24.890625 -19.5 C25.28131699326671 -19.48747126821177, 25.67200898653342 -19.474942536423537, 26.1399942896239 -19.45993515863156 M26.1399942896239 -19.45993515863156 C26.60537199021857 -19.415040731553763, 27.070749690813237 -19.370146304475966, 27.384229652847864 -19.3399052695533 M26.1399942896239 -19.45993515863156 C26.467198357641067 -19.42837017571041, 26.794402425658234 -19.39680519278926, 27.384229652847864 -19.3399052695533 M27.384229652847864 -19.3399052695533 C27.634714514739187 -19.299408819621824, 27.885199376630514 -19.258912369690353, 28.61821825967676 -19.140403561325776 M27.384229652847864 -19.3399052695533 C27.80967563842324 -19.271122461988366, 28.235121623998616 -19.202339654423437, 28.61821825967676 -19.140403561325776 M28.61821825967676 -19.140403561325776 C28.97225734667212 -19.059596450040036, 29.32629643366748 -18.9787893387543, 29.83688938623539 -18.862249829261074 M28.61821825967676 -19.140403561325776 C28.929904747575016 -19.069263154407412, 29.241591235473273 -18.998122747489052, 29.83688938623539 -18.862249829261074 M29.83688938623539 -18.862249829261074 C30.1870546950073 -18.758322603672784, 30.53722000377921 -18.654395378084494, 31.035235251460602 -18.50658706670804 M29.83688938623539 -18.862249829261074 C30.299793231849968 -18.72486239771454, 30.76269707746454 -18.587474966168003, 31.035235251460602 -18.50658706670804 M31.035235251460602 -18.50658706670804 C31.331522211611027 -18.397550726526045, 31.627809171761452 -18.288514386344055, 32.2083315951478 -18.074876768247425 M31.035235251460602 -18.50658706670804 C31.478948247523476 -18.343296582518928, 31.92266124358635 -18.18000609832982, 32.2083315951478 -18.074876768247425 M32.2083315951478 -18.074876768247425 C32.62058932070826 -17.89238250233273, 33.03284704626873 -17.70988823641804, 33.35135791279238 -17.568892924097174 M32.2083315951478 -18.074876768247425 C32.65953442573697 -17.875142659602016, 33.11073725632614 -17.67540855095661, 33.35135791279238 -17.568892924097174 M33.35135791279238 -17.568892924097174 C33.59715921328489 -17.44065854307348, 33.8429605137774 -17.312424162049787, 34.45961726407678 -16.990714730406097 M33.35135791279238 -17.568892924097174 C33.63153650772369 -17.422723930584468, 33.911715102654995 -17.27655493707176, 34.45961726407678 -16.990714730406097 M34.45961726407678 -16.990714730406097 C34.78718792056293 -16.792139473425344, 35.11475857704907 -16.59356421644459, 35.5285555736057 -16.342718045390892 M34.45961726407678 -16.990714730406097 C34.86790759669888 -16.743206731390263, 35.27619792932097 -16.495698732374425, 35.5285555736057 -16.342718045390892 M35.5285555736057 -16.342718045390892 C35.826884483197674 -16.134616712509885, 36.12521339278964 -15.92651537962888, 36.55378034457871 -15.627565626425154 M35.5285555736057 -16.342718045390892 C35.811507347170675 -16.145343136936827, 36.09445912073566 -15.947968228482761, 36.55378034457871 -15.627565626425154 M36.55378034457871 -15.627565626425154 C36.76416743605496 -15.459787519608476, 36.97455452753121 -15.2920094127918, 37.531078708501866 -14.848196188198123 M36.55378034457871 -15.627565626425154 C36.90667379827064 -15.346142487995037, 37.259567251962565 -15.06471934956492, 37.531078708501866 -14.848196188198123 M37.531078708501866 -14.848196188198123 C37.78354051920532 -14.618917051490719, 38.036002329908776 -14.389637914783316, 38.45643473676799 -14.007812326905688 M37.531078708501866 -14.848196188198123 C37.86142790935487 -14.54818178454431, 38.19177711020789 -14.248167380890495, 38.45643473676799 -14.007812326905688 M38.45643473676799 -14.007812326905688 C38.701788120698275 -13.754464814110216, 38.94714150462857 -13.501117301314746, 39.32604594296865 -13.10986736009568 M38.45643473676799 -14.007812326905688 C38.6557473064783 -13.802005734813495, 38.855059876188605 -13.596199142721302, 39.32604594296865 -13.10986736009568 M39.32604594296865 -13.10986736009568 C39.64793933033582 -12.731753071041592, 39.96983271770298 -12.353638781987502, 40.13633890812658 -12.158051136245305 M39.32604594296865 -13.10986736009568 C39.628317912660684 -12.75480150473309, 39.93058988235273 -12.3997356493705, 40.13633890812658 -12.158051136245305 M40.13633890812658 -12.158051136245305 C40.380122511791214 -11.831403316477877, 40.623906115455846 -11.504755496710448, 40.883983964640635 -11.156274872382312 M40.13633890812658 -12.158051136245305 C40.340032125959 -11.88512078118376, 40.543725343791415 -11.612190426122215, 40.883983964640635 -11.156274872382312 M40.883983964640635 -11.156274872382312 C41.14842743011116 -10.750018696406345, 41.41287089558169 -10.343762520430376, 41.56590887860425 -10.108655082055241 M40.883983964640635 -11.156274872382312 C41.146175580372045 -10.75347814231195, 41.408367196103455 -10.350681412241588, 41.56590887860425 -10.108655082055241 M41.56590887860425 -10.108655082055241 C41.69576545125451 -9.878081587910849, 41.82562202390477 -9.647508093766456, 42.179311474273504 -9.019496659696287 M41.56590887860425 -10.108655082055241 C41.70445777889087 -9.86264747999887, 41.8430066791775 -9.616639877942498, 42.179311474273504 -9.019496659696287 M42.179311474273504 -9.019496659696287 C42.34010252324968 -8.685610606119944, 42.500893572225856 -8.351724552543603, 42.72167114880834 -7.893275190886684 M42.179311474273504 -9.019496659696287 C42.344279227792946 -8.67693758976869, 42.509246981312394 -8.334378519841092, 42.72167114880834 -7.893275190886684 M42.72167114880834 -7.893275190886684 C42.885404897680154 -7.4888496655966215, 43.04913864655197 -7.084424140306559, 43.190759229970325 -6.734618561215508 M42.72167114880834 -7.893275190886684 C42.882988365005296 -7.494818548023998, 43.04430558120226 -7.096361905161313, 43.190759229970325 -6.734618561215508 M43.190759229970325 -6.734618561215508 C43.289317266910665 -6.437777457041865, 43.387875303851004 -6.1409363528682235, 43.58464813421488 -5.548287939305138 M43.190759229970325 -6.734618561215508 C43.326410228442846 -6.32605936686778, 43.46206122691536 -5.917500172520051, 43.58464813421488 -5.548287939305138 M43.58464813421488 -5.548287939305138 C43.67903117935852 -5.188364482301936, 43.77341422450215 -4.828441025298735, 43.90171928754556 -4.339158212148133 M43.58464813421488 -5.548287939305138 C43.71133589469859 -5.065172601758028, 43.838023655182305 -4.582057264210918, 43.90171928754556 -4.339158212148133 M43.90171928754556 -4.339158212148133 C43.99630744719418 -3.853468003567102, 44.09089560684279 -3.367777794986071, 44.140669776581774 -3.1121979531509023 M43.90171928754556 -4.339158212148133 C43.962559005904 -4.02675911685658, 44.023398724262435 -3.714360021565026, 44.140669776581774 -3.1121979531509023 M44.140669776581774 -3.1121979531509023 C44.180274084079876 -2.805034764950751, 44.21987839157797 -2.4978715767506, 44.30051770250937 -1.872449005199798 M44.140669776581774 -3.1121979531509023 C44.1850788877079 -2.7677696568275643, 44.22948799883403 -2.423341360504226, 44.30051770250937 -1.872449005199798 M44.30051770250937 -1.872449005199798 C44.318243581169305 -1.596354136999524, 44.33596945982924 -1.32025926879925, 44.38060621591342 -0.6250057626472757 M44.30051770250937 -1.872449005199798 C44.319717079351655 -1.5734032134230973, 44.33891645619394 -1.2743574216463966, 44.38060621591342 -0.6250057626472757 M44.38060621591342 -0.6250057626472757 C44.38060621591342 -0.14263561387985269, 44.38060621591342 0.3397345348875703, 44.38060621591342 0.625005762647271 M44.38060621591342 -0.6250057626472757 C44.38060621591342 -0.17999359881410965, 44.38060621591342 0.2650185650190564, 44.38060621591342 0.625005762647271 M44.38060621591342 0.625005762647271 C44.360394023206375 0.939826979047782, 44.340181830499326 1.2546481954482929, 44.30051770250937 1.8724490051997846 M44.38060621591342 0.625005762647271 C44.35051920100143 1.0936353057026924, 44.320432186089455 1.5622648487581139, 44.30051770250937 1.8724490051997846 M44.30051770250937 1.8724490051997846 C44.238766613101575 2.3513782605147706, 44.17701552369378 2.8303075158297566, 44.140669776581774 3.1121979531508885 M44.30051770250937 1.8724490051997846 C44.245191290153514 2.301549733995908, 44.18986487779766 2.7306504627920316, 44.140669776581774 3.1121979531508885 M44.140669776581774 3.1121979531508885 C44.053084774756016 3.5619284264294824, 43.96549977293026 4.011658899708077, 43.90171928754556 4.339158212148129 M44.140669776581774 3.1121979531508885 C44.068850134237586 3.4809766375015254, 43.9970304918934 3.8497553218521623, 43.90171928754556 4.339158212148129 M43.90171928754556 4.339158212148129 C43.83412657428057 4.596918522694781, 43.76653386101558 4.854678833241433, 43.58464813421489 5.548287939305125 M43.90171928754556 4.339158212148129 C43.81436297742229 4.672285683112459, 43.72700666729902 5.005413154076788, 43.58464813421489 5.548287939305125 M43.58464813421489 5.548287939305125 C43.42887949622926 6.017438258555766, 43.27311085824363 6.4865885778064065, 43.190759229970325 6.734618561215495 M43.58464813421489 5.548287939305125 C43.43325584646114 6.0042573889340645, 43.281863558707386 6.4602268385630035, 43.190759229970325 6.734618561215495 M43.190759229970325 6.734618561215495 C43.06725070338232 7.039687009762786, 42.943742176794316 7.344755458310076, 42.72167114880834 7.893275190886679 M43.190759229970325 6.734618561215495 C43.00409443742403 7.195684207723096, 42.817429644877734 7.656749854230696, 42.72167114880834 7.893275190886679 M42.72167114880834 7.893275190886679 C42.56757052653724 8.213268430257731, 42.413469904266144 8.533261669628784, 42.179311474273504 9.019496659696284 M42.72167114880834 7.893275190886679 C42.54324528239191 8.263780320202361, 42.364819415975475 8.634285449518044, 42.179311474273504 9.019496659696284 M42.179311474273504 9.019496659696284 C42.01015775689046 9.319846213581132, 41.84100403950742 9.62019576746598, 41.56590887860425 10.108655082055236 M42.179311474273504 9.019496659696284 C41.945574866095896 9.434519675913716, 41.71183825791829 9.849542692131148, 41.56590887860425 10.108655082055236 M41.56590887860425 10.108655082055236 C41.429326269607614 10.318482647039922, 41.29274366061099 10.528310212024607, 40.88398396464064 11.156274872382301 M41.56590887860425 10.108655082055236 C41.30770897876384 10.505319464591212, 41.04950907892344 10.901983847127187, 40.88398396464064 11.156274872382301 M40.88398396464064 11.156274872382301 C40.68224105008368 11.426591998731016, 40.48049813552672 11.696909125079731, 40.13633890812658 12.158051136245302 M40.88398396464064 11.156274872382301 C40.66838708442328 11.445155050593725, 40.45279020420591 11.734035228805148, 40.13633890812658 12.158051136245302 M40.13633890812658 12.158051136245302 C39.824473091156534 12.52438647052602, 39.512607274186486 12.890721804806736, 39.32604594296866 13.10986736009567 M40.13633890812658 12.158051136245302 C39.85696143465213 12.486223813616979, 39.57758396117768 12.814396490988656, 39.32604594296866 13.10986736009567 M39.32604594296866 13.10986736009567 C39.017347888671544 13.428623445739044, 38.70864983437443 13.74737953138242, 38.45643473676799 14.007812326905684 M39.32604594296866 13.10986736009567 C39.0338225201604 13.411612036134402, 38.74159909735214 13.713356712173134, 38.45643473676799 14.007812326905684 M38.45643473676799 14.007812326905684 C38.15413226828256 14.282355430299138, 37.85182979979713 14.556898533692593, 37.53107870850189 14.848196188198111 M38.45643473676799 14.007812326905684 C38.254522807288275 14.191183398962258, 38.05261087780856 14.37455447101883, 37.53107870850189 14.848196188198111 M37.53107870850189 14.848196188198111 C37.17443839885553 15.132607344543862, 36.81779808920917 15.417018500889613, 36.55378034457871 15.627565626425152 M37.53107870850189 14.848196188198111 C37.22652287724436 15.091071359054947, 36.92196704598684 15.333946529911781, 36.55378034457871 15.627565626425152 M36.55378034457871 15.627565626425152 C36.19672218719824 15.876633940215257, 35.83966402981777 16.12570225400536, 35.52855557360571 16.34271804539089 M36.55378034457871 15.627565626425152 C36.311953160102924 15.796253801785372, 36.07012597562713 15.96494197714559, 35.52855557360571 16.34271804539089 M35.52855557360571 16.34271804539089 C35.10719901343893 16.598146868329984, 34.68584245327215 16.853575691269082, 34.45961726407678 16.990714730406093 M35.52855557360571 16.34271804539089 C35.10328085767951 16.600522077376986, 34.67800614175331 16.858326109363087, 34.45961726407678 16.990714730406093 M34.45961726407678 16.990714730406093 C34.069271736872295 17.19435774192043, 33.67892620966781 17.398000753434772, 33.35135791279239 17.56889292409717 M34.45961726407678 16.990714730406093 C34.19393977188993 17.12931850790542, 33.92826227970308 17.267922285404747, 33.35135791279239 17.56889292409717 M33.35135791279239 17.56889292409717 C33.11642994290082 17.672888567477543, 32.88150197300926 17.77688421085792, 32.208331595147804 18.07487676824742 M33.35135791279239 17.56889292409717 C32.959486573027114 17.74236274176098, 32.56761523326183 17.915832559424793, 32.208331595147804 18.07487676824742 M32.208331595147804 18.07487676824742 C31.79580364534516 18.226690867141357, 31.383275695542515 18.378504966035297, 31.035235251460616 18.506587066708033 M32.208331595147804 18.07487676824742 C31.855403694507817 18.204757498112688, 31.502475793867827 18.33463822797795, 31.035235251460616 18.506587066708033 M31.035235251460616 18.506587066708033 C30.714883669929634 18.601665734546664, 30.394532088398655 18.696744402385296, 29.836889386235413 18.86224982926107 M31.035235251460616 18.506587066708033 C30.56945960606094 18.644826833356404, 30.10368396066126 18.783066600004776, 29.836889386235413 18.86224982926107 M29.836889386235413 18.86224982926107 C29.421152580430203 18.957139042249914, 29.005415774624993 19.05202825523876, 28.618218259676766 19.140403561325773 M29.836889386235413 18.86224982926107 C29.358470195631217 18.971445887539495, 28.88005100502702 19.08064194581792, 28.618218259676766 19.140403561325773 M28.618218259676766 19.140403561325773 C28.26660736670864 19.19724928371766, 27.91499647374052 19.254095006109548, 27.38422965284788 19.3399052695533 M28.618218259676766 19.140403561325773 C28.2241710824073 19.2041100530652, 27.830123905137828 19.26781654480463, 27.38422965284788 19.3399052695533 M27.38422965284788 19.3399052695533 C26.909100691811886 19.38574038899826, 26.433971730775895 19.431575508443228, 26.1399942896239 19.45993515863156 M27.38422965284788 19.3399052695533 C26.98284902408873 19.37862597607886, 26.581468395329583 19.417346682604425, 26.1399942896239 19.45993515863156 M26.1399942896239 19.45993515863156 C25.767025192639164 19.47189555163155, 25.394056095654427 19.483855944631546, 24.890625000000004 19.5 M26.1399942896239 19.45993515863156 C25.803492448621036 19.470726117711422, 25.466990607618172 19.481517076791285, 24.890625000000004 19.5 M24.890625000000004 19.5 C24.890625000000004 19.5, 24.890625000000004 19.5, 24.890625 19.5 M24.890625000000004 19.5 C24.890625000000004 19.5, 24.890625 19.5, 24.890625 19.5 M24.890625 19.5 C12.824004998793924 19.5, 0.7573849975878488 19.5, -24.890624999999996 19.5 M24.890625 19.5 C12.588311021190695 19.5, 0.2859970423813891 19.5, -24.890624999999996 19.5 M-24.890624999999996 19.5 C-25.32184564782479 19.48617159314433, -25.75306629564959 19.47234318628866, -26.139994289623893 19.45993515863156 M-24.890624999999996 19.5 C-25.285351999533802 19.487341873414447, -25.680078999067607 19.47468374682889, -26.139994289623893 19.45993515863156 M-26.139994289623893 19.45993515863156 C-26.39100022653199 19.43572091777684, -26.642006163440087 19.411506676922123, -27.38422965284787 19.3399052695533 M-26.139994289623893 19.45993515863156 C-26.402561829422417 19.434605583850864, -26.665129369220942 19.409276009070165, -27.38422965284787 19.3399052695533 M-27.38422965284787 19.3399052695533 C-27.690154822694403 19.290445660577635, -27.996079992540935 19.240986051601976, -28.61821825967676 19.140403561325773 M-27.38422965284787 19.3399052695533 C-27.834374113858203 19.26712940401958, -28.28451857486853 19.19435353848586, -28.61821825967676 19.140403561325773 M-28.61821825967676 19.140403561325773 C-29.100909265003665 19.030232489213084, -29.58360027033057 18.9200614171004, -29.836889386235388 18.862249829261074 M-28.61821825967676 19.140403561325773 C-28.893431504042116 19.077587934233637, -29.16864474840747 19.014772307141506, -29.836889386235388 18.862249829261074 M-29.836889386235388 18.862249829261074 C-30.133475430153062 18.77422464823822, -30.43006147407074 18.68619946721537, -31.03523525146059 18.506587066708043 M-29.836889386235388 18.862249829261074 C-30.1004729008822 18.784019625692004, -30.36405641552901 18.705789422122933, -31.03523525146059 18.506587066708043 M-31.03523525146059 18.506587066708043 C-31.272067619932173 18.419430565856086, -31.508899988403755 18.33227406500413, -32.2083315951478 18.074876768247425 M-31.03523525146059 18.506587066708043 C-31.48741098819752 18.340182215722162, -31.939586724934447 18.173777364736285, -32.2083315951478 18.074876768247425 M-32.2083315951478 18.074876768247425 C-32.605170898910046 17.89920778029157, -33.0020102026723 17.723538792335713, -33.35135791279238 17.568892924097174 M-32.2083315951478 18.074876768247425 C-32.570658498385775 17.91448539622968, -32.932985401623746 17.754094024211934, -33.35135791279238 17.568892924097174 M-33.35135791279238 17.568892924097174 C-33.59822175648911 17.44010421496443, -33.84508560018585 17.311315505831683, -34.45961726407678 16.990714730406097 M-33.35135791279238 17.568892924097174 C-33.65204807440874 17.412023059383163, -33.95273823602509 17.255153194669152, -34.45961726407678 16.990714730406097 M-34.45961726407678 16.990714730406097 C-34.8778075851674 16.73720530020185, -35.29599790625803 16.4836958699976, -35.528555573605686 16.3427180453909 M-34.45961726407678 16.990714730406097 C-34.808154819286116 16.779429216204175, -35.15669237449545 16.56814370200225, -35.528555573605686 16.3427180453909 M-35.528555573605686 16.3427180453909 C-35.926616839787954 16.065047737896638, -36.324678105970214 15.787377430402378, -36.55378034457871 15.627565626425156 M-35.528555573605686 16.3427180453909 C-35.91547427601013 16.07282030803423, -36.30239297841458 15.802922570677566, -36.55378034457871 15.627565626425156 M-36.55378034457871 15.627565626425156 C-36.92340665493576 15.332798480084621, -37.29303296529281 15.038031333744085, -37.531078708501866 14.848196188198125 M-36.55378034457871 15.627565626425156 C-36.77476065743953 15.451339707451744, -36.995740970300346 15.275113788478334, -37.531078708501866 14.848196188198125 M-37.531078708501866 14.848196188198125 C-37.88290609507483 14.5286758645551, -38.234733481647794 14.209155540912073, -38.456434736767974 14.007812326905697 M-37.531078708501866 14.848196188198125 C-37.804778223336506 14.599629530517639, -38.07847773817114 14.351062872837153, -38.456434736767974 14.007812326905697 M-38.456434736767974 14.007812326905697 C-38.72304240310032 13.732518022521067, -38.98965006943266 13.457223718136438, -39.326045942968655 13.109867360095677 M-38.456434736767974 14.007812326905697 C-38.76914775577295 13.684910460566723, -39.08186077477793 13.362008594227751, -39.326045942968655 13.109867360095677 M-39.326045942968655 13.109867360095677 C-39.561633707952026 12.833132566022622, -39.7972214729354 12.556397771949568, -40.136338908126575 12.158051136245307 M-39.326045942968655 13.109867360095677 C-39.60609664527908 12.780903869825455, -39.886147347589514 12.451940379555234, -40.136338908126575 12.158051136245307 M-40.136338908126575 12.158051136245307 C-40.42376259933095 11.772929574868394, -40.711186290535316 11.38780801349148, -40.883983964640635 11.156274872382316 M-40.136338908126575 12.158051136245307 C-40.41185798229438 11.788880677164467, -40.68737705646219 11.41971021808363, -40.883983964640635 11.156274872382316 M-40.883983964640635 11.156274872382316 C-41.10952008651939 10.809790824247942, -41.335056208398136 10.463306776113567, -41.56590887860425 10.108655082055249 M-40.883983964640635 11.156274872382316 C-41.10364022676219 10.818823867798416, -41.32329648888374 10.481372863214517, -41.56590887860425 10.108655082055249 M-41.56590887860425 10.108655082055249 C-41.74366811474105 9.793025558219842, -41.92142735087784 9.477396034384437, -42.179311474273504 9.019496659696289 M-41.56590887860425 10.108655082055249 C-41.71132395645741 9.850455886453615, -41.85673903431057 9.59225669085198, -42.179311474273504 9.019496659696289 M-42.179311474273504 9.019496659696289 C-42.32893381256363 8.708802672831649, -42.47855615085376 8.398108685967006, -42.72167114880834 7.893275190886686 M-42.179311474273504 9.019496659696289 C-42.37443713056535 8.61431405938606, -42.56956278685718 8.20913145907583, -42.72167114880834 7.893275190886686 M-42.72167114880834 7.893275190886686 C-42.90903362966145 7.4304862407723675, -43.09639611051456 6.96769729065805, -43.190759229970325 6.73461856121551 M-42.72167114880834 7.893275190886686 C-42.87271544943081 7.520192848106298, -43.02375975005328 7.14711050532591, -43.190759229970325 6.73461856121551 M-43.190759229970325 6.73461856121551 C-43.27218529135077 6.4893762378186395, -43.35361135273123 6.24413391442177, -43.58464813421488 5.5482879393051325 M-43.190759229970325 6.73461856121551 C-43.33735501647504 6.293095409129974, -43.48395080297975 5.851572257044437, -43.58464813421488 5.5482879393051325 M-43.58464813421488 5.5482879393051325 C-43.666175312008114 5.237389476277166, -43.74770248980135 4.9264910132491995, -43.90171928754556 4.339158212148136 M-43.58464813421488 5.5482879393051325 C-43.690754940740746 5.143656699041175, -43.796861747266604 4.739025458777218, -43.90171928754556 4.339158212148136 M-43.90171928754556 4.339158212148136 C-43.96608430431914 4.0086574545669, -44.030449321092725 3.6781566969856643, -44.140669776581774 3.112197953150904 M-43.90171928754556 4.339158212148136 C-43.96190996849123 4.030091786797046, -44.0221006494369 3.7210253614459554, -44.140669776581774 3.112197953150904 M-44.140669776581774 3.112197953150904 C-44.187614688230425 2.7481024887253143, -44.23455959987908 2.384007024299724, -44.30051770250937 1.872449005199809 M-44.140669776581774 3.112197953150904 C-44.179111855630225 2.8140487792982376, -44.21755393467868 2.5158996054455707, -44.30051770250937 1.872449005199809 M-44.30051770250937 1.872449005199809 C-44.323750246497795 1.5105833796080717, -44.34698279048622 1.1487177540163342, -44.38060621591342 0.6250057626472781 M-44.30051770250937 1.872449005199809 C-44.32403920222374 1.506082660935653, -44.34756070193811 1.1397163166714968, -44.38060621591342 0.6250057626472781 M-44.38060621591342 0.6250057626472781 C-44.38060621591342 0.270084501188877, -44.38060621591342 -0.08483676026952414, -44.38060621591342 -0.6250057626472687 M-44.38060621591342 0.6250057626472781 C-44.38060621591342 0.2632953822181509, -44.38060621591342 -0.09841499821097632, -44.38060621591342 -0.6250057626472687 M-44.38060621591342 -0.6250057626472687 C-44.35275493503627 -1.0588119434581198, -44.32490365415912 -1.492618124268971, -44.30051770250937 -1.8724490051997822 M-44.38060621591342 -0.6250057626472687 C-44.36382166990298 -0.8864386150014509, -44.34703712389255 -1.1478714673556332, -44.30051770250937 -1.8724490051997822 M-44.30051770250937 -1.8724490051997822 C-44.244475462317745 -2.3071015533339576, -44.188433222126115 -2.7417541014681333, -44.140669776581774 -3.112197953150895 M-44.30051770250937 -1.8724490051997822 C-44.23830451113068 -2.354962232148677, -44.17609131975199 -2.837475459097572, -44.140669776581774 -3.112197953150895 M-44.140669776581774 -3.112197953150895 C-44.056057611409635 -3.5466635385224046, -43.97144544623749 -3.981129123893914, -43.90171928754556 -4.339158212148126 M-44.140669776581774 -3.112197953150895 C-44.07041774707944 -3.472927276873685, -44.00016571757711 -3.833656600596475, -43.90171928754556 -4.339158212148126 M-43.90171928754556 -4.339158212148126 C-43.7801207667504 -4.8028660730723685, -43.65852224595524 -5.266573933996611, -43.58464813421489 -5.548287939305123 M-43.90171928754556 -4.339158212148126 C-43.818891308301716 -4.655017194878187, -43.73606332905787 -4.970876177608249, -43.58464813421489 -5.548287939305123 M-43.58464813421489 -5.548287939305123 C-43.47247252747326 -5.886142994055141, -43.36029692073163 -6.223998048805159, -43.19075922997033 -6.734618561215485 M-43.58464813421489 -5.548287939305123 C-43.477040074194946 -5.872386271069167, -43.369432014175 -6.196484602833211, -43.19075922997033 -6.734618561215485 M-43.19075922997033 -6.734618561215485 C-43.09305843061045 -6.975941424550846, -42.99535763125057 -7.217264287886206, -42.72167114880834 -7.893275190886676 M-43.19075922997033 -6.734618561215485 C-43.04624043846436 -7.091582770315984, -42.90172164695839 -7.448546979416483, -42.72167114880834 -7.893275190886676 M-42.72167114880834 -7.893275190886676 C-42.609474851974184 -8.12625320187899, -42.49727855514002 -8.359231212871302, -42.179311474273504 -9.019496659696282 M-42.72167114880834 -7.893275190886676 C-42.564875663557835 -8.218864370895302, -42.40808017830732 -8.544453550903928, -42.179311474273504 -9.019496659696282 M-42.179311474273504 -9.019496659696282 C-41.97564385657789 -9.381129138497478, -41.77197623888228 -9.742761617298672, -41.56590887860425 -10.108655082055243 M-42.179311474273504 -9.019496659696282 C-41.99489681814874 -9.346943555654674, -41.81048216202397 -9.674390451613064, -41.56590887860425 -10.108655082055243 M-41.56590887860425 -10.108655082055243 C-41.347733322469544 -10.443831324618115, -41.129557766334834 -10.779007567180987, -40.88398396464064 -11.156274872382308 M-41.56590887860425 -10.108655082055243 C-41.32430341499101 -10.479825954316237, -41.08269795137777 -10.850996826577232, -40.88398396464064 -11.156274872382308 M-40.88398396464064 -11.156274872382308 C-40.6238823598558 -11.504787327050336, -40.363780755070955 -11.853299781718363, -40.13633890812659 -12.158051136245302 M-40.88398396464064 -11.156274872382308 C-40.693402091856 -11.411637219547938, -40.50282021907136 -11.666999566713569, -40.13633890812659 -12.158051136245302 M-40.13633890812659 -12.158051136245302 C-39.835957285340704 -12.51089648256814, -39.53557566255481 -12.86374182889098, -39.32604594296866 -13.10986736009567 M-40.13633890812659 -12.158051136245302 C-39.93244330881846 -12.397558509180891, -39.728547709510345 -12.637065882116483, -39.32604594296866 -13.10986736009567 M-39.32604594296866 -13.10986736009567 C-39.039542340641205 -13.40570585188198, -38.75303873831374 -13.701544343668287, -38.456434736767996 -14.007812326905677 M-39.32604594296866 -13.10986736009567 C-39.145296878769514 -13.29650560865544, -38.964547814570366 -13.483143857215213, -38.456434736767996 -14.007812326905677 M-38.456434736767996 -14.007812326905677 C-38.139364481250205 -14.29576714374769, -37.822294225732406 -14.583721960589706, -37.53107870850189 -14.848196188198107 M-38.456434736767996 -14.007812326905677 C-38.1212880855059 -14.31218364808744, -37.78614143424381 -14.616554969269206, -37.53107870850189 -14.848196188198107 M-37.53107870850189 -14.848196188198107 C-37.214345122923234 -15.100782794062393, -36.897611537344574 -15.353369399926681, -36.55378034457872 -15.627565626425149 M-37.53107870850189 -14.848196188198107 C-37.307285767764206 -15.026665103056144, -37.083492827026525 -15.205134017914181, -36.55378034457872 -15.627565626425149 M-36.55378034457872 -15.627565626425149 C-36.17978151668092 -15.888451018618337, -35.80578268878311 -16.149336410811525, -35.528555573605715 -16.342718045390885 M-36.55378034457872 -15.627565626425149 C-36.22249412039708 -15.858656555264757, -35.891207896215434 -16.089747484104365, -35.528555573605715 -16.342718045390885 M-35.528555573605715 -16.342718045390885 C-35.14883316993964 -16.572907997989795, -34.76911076627357 -16.8030979505887, -34.45961726407679 -16.99071473040609 M-35.528555573605715 -16.342718045390885 C-35.21105069815066 -16.535191366757495, -34.8935458226956 -16.727664688124108, -34.45961726407679 -16.99071473040609 M-34.45961726407679 -16.99071473040609 C-34.11544139390059 -17.170271061421847, -33.771265523724395 -17.349827392437604, -33.35135791279239 -17.56889292409717 M-34.45961726407679 -16.99071473040609 C-34.033532115873335 -17.21300307930327, -33.60744696766987 -17.435291428200454, -33.35135791279239 -17.56889292409717 M-33.35135791279239 -17.56889292409717 C-33.00369693175952 -17.722792127403842, -32.65603595072665 -17.87669133071051, -32.208331595147804 -18.07487676824742 M-33.35135791279239 -17.56889292409717 C-32.99476527257618 -17.72674590797605, -32.638172632359975 -17.884598891854925, -32.208331595147804 -18.07487676824742 M-32.208331595147804 -18.07487676824742 C-31.80784147095926 -18.22226083603893, -31.407351346770714 -18.36964490383044, -31.03523525146062 -18.506587066708033 M-32.208331595147804 -18.07487676824742 C-31.801503453989387 -18.22459328487183, -31.394675312830973 -18.37430980149624, -31.03523525146062 -18.506587066708033 M-31.03523525146062 -18.506587066708033 C-30.649880513809503 -18.62095833007459, -30.264525776158386 -18.735329593441147, -29.836889386235413 -18.862249829261067 M-31.03523525146062 -18.506587066708033 C-30.605697862847435 -18.634071508960663, -30.176160474234255 -18.761555951213293, -29.836889386235413 -18.862249829261067 M-29.836889386235413 -18.862249829261067 C-29.483479174456424 -18.942913403882464, -29.130068962677434 -19.023576978503858, -28.618218259676766 -19.140403561325773 M-29.836889386235413 -18.862249829261067 C-29.510126641922092 -18.9368312933244, -29.18336389760877 -19.01141275738773, -28.618218259676766 -19.140403561325773 M-28.618218259676766 -19.140403561325773 C-28.24385828625685 -19.200927178623353, -27.869498312836935 -19.261450795920933, -27.384229652847882 -19.3399052695533 M-28.618218259676766 -19.140403561325773 C-28.247050010481374 -19.200411165402922, -27.87588176128598 -19.260418769480072, -27.384229652847882 -19.3399052695533 M-27.384229652847882 -19.3399052695533 C-27.037554951440523 -19.373348561060737, -26.69088025003316 -19.40679185256818, -26.139994289623903 -19.45993515863156 M-27.384229652847882 -19.3399052695533 C-27.01756440579666 -19.375277024956855, -26.650899158745432 -19.410648780360408, -26.139994289623903 -19.45993515863156 M-26.139994289623903 -19.45993515863156 C-25.76862643860483 -19.47184420279007, -25.39725858758576 -19.48375324694858, -24.890625000000007 -19.5 M-26.139994289623903 -19.45993515863156 C-25.820809616260906 -19.470170789851032, -25.501624942897912 -19.480406421070505, -24.890625000000007 -19.5 M-24.890625000000007 -19.5 C-24.890625000000004 -19.5, -24.890625000000004 -19.5, -24.890625 -19.5 M-24.890625000000007 -19.5 C-24.890625000000007 -19.5, -24.890625000000004 -19.5, -24.890625 -19.5" stroke="#999" stroke-width="1.3" fill="none" stroke-dasharray="0 0" style="fill:#1f6f43 !important"></path></g><g class="label" style="color:#fff !important" transform="translate(-32.015625, -12)"><rect></rect><foreignObject width="64.03125" height="24"><div style="color: rgb(255, 255, 255) !important; display: table-cell; white-space: nowrap; line-height: 1.5; max-width: 200px; text-align: center;" xmlns="http://www.w3.org/1999/xhtml"><span style="color:#fff !important" class="nodeLabel "><p>/check-in</p></span></div></foreignObject></g></g><g class="node default proc " id="d43-flowchart-G-1" data-look="classic" transform="translate(138, 160)"><rect class="basic label-container" style="fill:#f4ead2 !important;stroke:#7a5c2e !important" x="-130" y="-63" width="260" height="126"></rect><g class="label" style="color:#222 !important" transform="translate(-100, -48)"><rect></rect><foreignObject width="200" height="96"><div style="color: rgb(34, 34, 34) !important; display: table; white-space: break-spaces; line-height: 1.5; max-width: 200px; text-align: center; width: 200px;" xmlns="http://www.w3.org/1999/xhtml"><span style="color:#222 !important" class="nodeLabel "><p>StaffAuthGate<br/>(checkin.perform)<br/>email OTP · my_permissions</p></span></div></foreignObject></g></g><g class="node default db " id="d43-flowchart-EV-3" data-look="classic" transform="translate(138, 324)"><rect class="basic label-container" style="fill:#dce8f7 !important;stroke:#2a5b9a !important" x="-130" y="-51" width="260" height="102"></rect><g class="label" style="color:#122 !important" transform="translate(-100, -36)"><rect></rect><foreignObject width="200" height="72"><div style="color: rgb(17, 34, 34) !important; display: table; white-space: break-spaces; line-height: 1.5; max-width: 200px; text-align: center; width: 200px;" xmlns="http://www.w3.org/1999/xhtml"><span style="color:#122 !important" class="nodeLabel "><p>my_checkin_events()<br/>pick event · event_checkin_stats()</p></span></div></foreignObject></g></g><g class="node default proc " id="d43-flowchart-SC-5" data-look="classic" transform="translate(138, 464)"><rect class="basic label-container" style="fill:#f4ead2 !important;stroke:#7a5c2e !important" x="-112.6953125" y="-39" width="225.390625" height="78"></rect><g class="label" style="color:#222 !important" transform="translate(-82.6953125, -24)"><rect></rect><foreignObject width="165.390625" height="48"><div style="color: rgb(34, 34, 34) !important; display: table-cell; white-space: nowrap; line-height: 1.5; max-width: 200px; text-align: center;" xmlns="http://www.w3.org/1999/xhtml"><span style="color:#222 !important" class="nodeLabel "><p>Camera (html5-qrcode)<br/>or typed code</p></span></div></foreignObject></g></g><g class="node default dec " id="d43-flowchart-OFF-7" data-look="classic" transform="translate(138, 605.65625)"><polygon points="52.65625,0 105.3125,-52.65625 52.65625,-105.3125 0,-52.65625" class="label-container" transform="translate(-52.15625, 52.65625)" style="fill:#fff3c4 !important;stroke:#b38600 !important"></polygon><g class="label" style="color:#222 !important" transform="translate(-25.65625, -12)"><rect></rect><foreignObject width="51.3125" height="24"><div style="color: rgb(34, 34, 34) !important; display: table-cell; white-space: nowrap; line-height: 1.5; max-width: 200px; text-align: center;" xmlns="http://www.w3.org/1999/xhtml"><span style="color:#222 !important" class="nodeLabel "><p>offline?</p></span></div></foreignObject></g></g><g class="node default err " id="d43-flowchart-OE-9" data-look="classic" transform="translate(133.1640625, 769.3125)"><rect class="basic label-container" style="fill:#fbdada !important;stroke:#b42318 !important" x="-85.34375" y="-39" width="170.6875" height="78"></rect><g class="label" style="color:#5a0d0d !important" transform="translate(-55.34375, -24)"><rect></rect><foreignObject width="110.6875" height="48"><div style="color: rgb(90, 13, 13) !important; display: table-cell; white-space: nowrap; line-height: 1.5; max-width: 200px; text-align: center;" xmlns="http://www.w3.org/1999/xhtml"><span style="color:#5a0d0d !important" class="nodeLabel "><p>'Reconnect and<br/>scan again'</p></span></div></foreignObject></g></g><g class="node default proc " id="d43-flowchart-P-11" data-look="classic" transform="translate(393.3515625, 769.3125)"><rect class="basic label-container" style="fill:#f4ead2 !important;stroke:#7a5c2e !important" x="-124.84375" y="-39" width="249.6875" height="78"></rect><g class="label" style="color:#222 !important" transform="translate(-94.84375, -24)"><rect></rect><foreignObject width="189.6875" height="48"><div style="color: rgb(34, 34, 34) !important; display: table-cell; white-space: nowrap; line-height: 1.5; max-width: 200px; text-align: center;" xmlns="http://www.w3.org/1999/xhtml"><span style="color:#222 !important" class="nodeLabel "><p>parseCheckinCode<br/>BOOKING / TICKET / bare</p></span></div></foreignObject></g></g><g class="node default db " id="d43-flowchart-PRE-13" data-look="classic" transform="translate(393.3515625, 897.3125)"><rect class="basic label-container" style="fill:#dce8f7 !important;stroke:#2a5b9a !important" x="-110.9296875" y="-39" width="221.859375" height="78"></rect><g class="label" style="color:#122 !important" transform="translate(-80.9296875, -24)"><rect></rect><foreignObject width="161.859375" height="48"><div style="color: rgb(17, 34, 34) !important; display: table-cell; white-space: nowrap; line-height: 1.5; max-width: 200px; text-align: center;" xmlns="http://www.w3.org/1999/xhtml"><span style="color:#122 !important" class="nodeLabel "><p>check_in_ticket<br/>(token, event, preview)</p></span></div></foreignObject></g></g><g class="node default dec " id="d43-flowchart-A-15" data-look="classic" transform="translate(393.3515625, 1116.015625)"><polygon points="129.703125,0 259.40625,-129.703125 129.703125,-259.40625 0,-129.703125" class="label-container" transform="translate(-129.203125, 129.703125)" style="fill:#fff3c4 !important;stroke:#b38600 !important"></polygon><g class="label" style="color:#222 !important" transform="translate(-90.703125, -24)"><rect></rect><foreignObject width="181.40625" height="48"><div style="color: rgb(34, 34, 34) !important; display: table-cell; white-space: nowrap; line-height: 1.5; max-width: 200px; text-align: center;" xmlns="http://www.w3.org/1999/xhtml"><span style="color:#222 !important" class="nodeLabel "><p>checkin.perform or<br/>active temporary access?</p></span></div></foreignObject></g></g><g class="node default err " id="d43-flowchart-AE-17" data-look="classic" transform="translate(207.3671875, 1417.6640625)"><rect class="basic label-container" style="fill:#fbdada !important;stroke:#b42318 !important" x="-85.5859375" y="-27" width="171.171875" height="54"></rect><g class="label" style="color:#5a0d0d !important" transform="translate(-55.5859375, -12)"><rect></rect><foreignObject width="111.171875" height="24"><div style="color: rgb(90, 13, 13) !important; display: table-cell; white-space: nowrap; line-height: 1.5; max-width: 200px; text-align: center;" xmlns="http://www.w3.org/1999/xhtml"><span style="color:#5a0d0d !important" class="nodeLabel "><p>access_expired</p></span></div></foreignObject></g></g><g class="node default err " id="d43-flowchart-NP-19" data-look="classic" transform="translate(422.7578125, 1417.6640625)"><rect class="basic label-container" style="fill:#fbdada !important;stroke:#b42318 !important" x="-79.8046875" y="-27" width="159.609375" height="54"></rect><g class="label" style="color:#5a0d0d !important" transform="translate(-49.8046875, -12)"><rect></rect><foreignObject width="99.609375" height="24"><div style="color: rgb(90, 13, 13) !important; display: table-cell; white-space: nowrap; line-height: 1.5; max-width: 200px; text-align: center;" xmlns="http://www.w3.org/1999/xhtml"><span style="color:#5a0d0d !important" class="nodeLabel "><p>no permission</p></span></div></foreignObject></g></g><g class="node default dec " id="d43-flowchart-B-21" data-look="classic" transform="translate(652.5078125, 1417.6640625)"><polygon points="99.9453125,0 199.890625,-99.9453125 99.9453125,-199.890625 0,-99.9453125" class="label-container" transform="translate(-99.4453125, 99.9453125)" style="fill:#fff3c4 !important;stroke:#b38600 !important"></polygon><g class="label" style="color:#222 !important" transform="translate(-72.9453125, -12)"><rect></rect><foreignObject width="145.890625" height="24"><div style="color: rgb(34, 34, 34) !important; display: table-cell; white-space: nowrap; line-height: 1.5; max-width: 200px; text-align: center;" xmlns="http://www.w3.org/1999/xhtml"><span style="color:#222 !important" class="nodeLabel "><p>can_checkin_event?</p></span></div></foreignObject></g></g><g class="node default err " id="d43-flowchart-NA-23" data-look="classic" transform="translate(534.07421875, 1698.8828125)"><rect class="basic label-container" style="fill:#fbdada !important;stroke:#b42318 !important" x="-77.59375" y="-27" width="155.1875" height="54"></rect><g class="label" style="color:#5a0d0d !important" transform="translate(-47.59375, -12)"><rect></rect><foreignObject width="95.1875" height="24"><div style="color: rgb(90, 13, 13) !important; display: table-cell; white-space: nowrap; line-height: 1.5; max-width: 200px; text-align: center;" xmlns="http://www.w3.org/1999/xhtml"><span style="color:#5a0d0d !important" class="nodeLabel "><p>not_assigned</p></span></div></foreignObject></g></g><g class="node default dec " id="d43-flowchart-M-25" data-look="classic" transform="translate(770.94140625, 1698.8828125)"><polygon points="109.2734375,0 218.546875,-109.2734375 109.2734375,-218.546875 0,-109.2734375" class="label-container" transform="translate(-108.7734375, 109.2734375)" style="fill:#fff3c4 !important;stroke:#b38600 !important"></polygon><g class="label" style="color:#222 !important" transform="translate(-70.2734375, -24)"><rect></rect><foreignObject width="140.546875" height="48"><div style="color: rgb(34, 34, 34) !important; display: table-cell; white-space: nowrap; line-height: 1.5; max-width: 200px; text-align: center;" xmlns="http://www.w3.org/1999/xhtml"><span style="color:#222 !important" class="nodeLabel "><p>manual and manual<br/>check-in disabled?</p></span></div></foreignObject></g></g><g class="node default err " id="d43-flowchart-MD-27" data-look="classic" transform="translate(654.73046875, 1972.0859375)"><rect class="basic label-container" style="fill:#fbdada !important;stroke:#b42318 !important" x="-90.4921875" y="-27" width="180.984375" height="54"></rect><g class="label" style="color:#5a0d0d !important" transform="translate(-60.4921875, -12)"><rect></rect><foreignObject width="120.984375" height="24"><div style="color: rgb(90, 13, 13) !important; display: table-cell; white-space: nowrap; line-height: 1.5; max-width: 200px; text-align: center;" xmlns="http://www.w3.org/1999/xhtml"><span style="color:#5a0d0d !important" class="nodeLabel "><p>manual_disabled</p></span></div></foreignObject></g></g><g class="node default dec " id="d43-flowchart-K-29" data-look="classic" transform="translate(887.15234375, 1972.0859375)"><polygon points="91.9296875,0 183.859375,-91.9296875 91.9296875,-183.859375 0,-91.9296875" class="label-container" transform="translate(-91.4296875, 91.9296875)" style="fill:#fff3c4 !important;stroke:#b38600 !important"></polygon><g class="label" style="color:#222 !important" transform="translate(-64.9296875, -12)"><rect></rect><foreignObject width="129.859375" height="24"><div style="color: rgb(34, 34, 34) !important; display: table-cell; white-space: nowrap; line-height: 1.5; max-width: 200px; text-align: center;" xmlns="http://www.w3.org/1999/xhtml"><span style="color:#222 !important" class="nodeLabel "><p>token resolves to?</p></span></div></foreignObject></g></g><g class="node default err " id="d43-flowchart-NF-31" data-look="classic" transform="translate(493.06640625, 2271.515625)"><rect class="basic label-container" style="fill:#fbdada !important;stroke:#b42318 !important" x="-65.59375" y="-27" width="131.1875" height="54"></rect><g class="label" style="color:#5a0d0d !important" transform="translate(-35.59375, -12)"><rect></rect><foreignObject width="71.1875" height="24"><div style="color: rgb(90, 13, 13) !important; display: table-cell; white-space: nowrap; line-height: 1.5; max-width: 200px; text-align: center;" xmlns="http://www.w3.org/1999/xhtml"><span style="color:#5a0d0d !important" class="nodeLabel "><p>not_found</p></span></div></foreignObject></g></g><g class="node default proc " id="d43-flowchart-PART2-33" data-look="classic" transform="translate(732.48828125, 2271.515625)"><rect class="basic label-container" style="fill:#f4ead2 !important;stroke:#7a5c2e !important" x="-123.828125" y="-27" width="247.65625" height="54"></rect><g class="label" style="color:#222 !important" transform="translate(-93.828125, -12)"><rect></rect><foreignObject width="187.65625" height="24"><div style="color: rgb(34, 34, 34) !important; display: table-cell; white-space: nowrap; line-height: 1.5; max-width: 200px; text-align: center;" xmlns="http://www.w3.org/1999/xhtml"><span style="color:#222 !important" class="nodeLabel "><p>→ part 2: group admission</p></span></div></foreignObject></g></g><g class="node default dec " id="d43-flowchart-TK-35" data-look="classic" transform="translate(1041.81640625, 2271.515625)"><polygon points="135.5,0 271,-135.5 135.5,-271 0,-135.5" class="label-container" transform="translate(-135, 135.5)" style="fill:#fff3c4 !important;stroke:#b38600 !important"></polygon><g class="label" style="color:#222 !important" transform="translate(-96.5, -24)"><rect></rect><foreignObject width="193" height="48"><div style="color: rgb(34, 34, 34) !important; display: table-cell; white-space: nowrap; line-height: 1.5; max-width: 200px; text-align: center;" xmlns="http://www.w3.org/1999/xhtml"><span style="color:#222 !important" class="nodeLabel "><p>right event · not cancelled ·<br/>paid · not already in?</p></span></div></foreignObject></g></g><g class="node default err " id="d43-flowchart-TF-37" data-look="classic" transform="translate(894.5390625, 2529.015625)"><rect class="basic label-container" style="fill:#fbdada !important;stroke:#b42318 !important" x="-120.7265625" y="-51" width="241.453125" height="102"></rect><g class="label" style="color:#5a0d0d !important" transform="translate(-90.7265625, -36)"><rect></rect><foreignObject width="181.453125" height="72"><div style="color: rgb(90, 13, 13) !important; display: table-cell; white-space: nowrap; line-height: 1.5; max-width: 200px; text-align: center;" xmlns="http://www.w3.org/1999/xhtml"><span style="color:#5a0d0d !important" class="nodeLabel "><p>wrong_event / cancelled /<br/>payment_not_confirmed /<br/>already_checked_in</p></span></div></foreignObject></g></g><g class="node default db " id="d43-flowchart-TW-39" data-look="classic" transform="translate(1189.09375, 2529.015625)"><rect class="basic label-container" style="fill:#dce8f7 !important;stroke:#2a5b9a !important" x="-123.828125" y="-39" width="247.65625" height="78"></rect><g class="label" style="color:#122 !important" transform="translate(-93.828125, -24)"><rect></rect><foreignObject width="187.65625" height="48"><div style="color: rgb(17, 34, 34) !important; display: table-cell; white-space: nowrap; line-height: 1.5; max-width: 200px; text-align: center;" xmlns="http://www.w3.org/1999/xhtml"><span style="color:#122 !important" class="nodeLabel "><p>insert checkins · ticket<br/>checked_in · audit → valid</p></span></div></foreignObject></g></g></g></g></g><defs><filter id="d43-drop-shadow" height="130%" width="130%"><feDropShadow dx="4" dy="4" stdDeviation="0" flood-opacity="0.06" flood-color="#000000"></feDropShadow></filter></defs><defs><filter id="d43-drop-shadow-small" height="150%" width="150%"><feDropShadow dx="2" dy="2" stdDeviation="0" flood-opacity="0.06" flood-color="#000000"></feDropShadow></filter></defs><linearGradient id="d43-gradient" gradientUnits="objectBoundingBox" x1="0%" y1="0%" x2="100%" y2="0%"><stop offset="0%" stop-color="hsl(0, 0%, 83.3333333333%)" stop-opacity="1"></stop><stop offset="100%" stop-color="hsl(0, 0%, 88.9215686275%)" stop-opacity="1"></stop></linearGradient><text text-anchor="middle" x="660.4609375" y="-25" class="flowchartTitleText">Check-in part 1 — sign-in, scan and authorization</text></svg>