<svg id="d65" width="100%" xmlns="http://www.w3.org/2000/svg" class="flowchart" style="max-width: 586px;" viewBox="0 -49 586 2082.546875" role="graphics-document document" aria-roledescription="flowchart-v2"><style>#d65{font-family:"trebuchet ms",verdana,arial,sans-serif;font-size:16px;fill:#000000;}@keyframes edge-animation-frame{from{stroke-dashoffset:0;}}@keyframes dash{to{stroke-dashoffset:0;}}#d65 .edge-animation-slow{stroke-dasharray:9,5!important;stroke-dashoffset:900;animation:dash 50s linear infinite;stroke-linecap:round;}#d65 .edge-animation-fast{stroke-dasharray:9,5!important;stroke-dashoffset:900;animation:dash 20s linear infinite;stroke-linecap:round;}#d65 .error-icon{fill:#552222;}#d65 .error-text{fill:#552222;stroke:#552222;}#d65 .edge-thickness-normal{stroke-width:1px;}#d65 .edge-thickness-thick{stroke-width:3.5px;}#d65 .edge-pattern-solid{stroke-dasharray:0;}#d65 .edge-thickness-invisible{stroke-width:0;fill:none;}#d65 .edge-pattern-dashed{stroke-dasharray:3;}#d65 .edge-pattern-dotted{stroke-dasharray:2;}#d65 .marker{fill:#666;stroke:#666;}#d65 .marker.cross{stroke:#666;}#d65 svg{font-family:"trebuchet ms",verdana,arial,sans-serif;font-size:16px;}#d65 p{margin:0;}#d65 .label{font-family:"trebuchet ms",verdana,arial,sans-serif;color:#000000;}#d65 .cluster-label text{fill:#333;}#d65 .cluster-label span{color:#333;}#d65 .cluster-label span p{background-color:transparent;}#d65 .label text,#d65 span{fill:#000000;color:#000000;}#d65 .node rect,#d65 .node circle,#d65 .node ellipse,#d65 .node polygon,#d65 .node path{fill:#eee;stroke:#999;stroke-width:1px;}#d65 .rough-node .label text,#d65 .node .label text,#d65 .image-shape .label,#d65 .icon-shape .label{text-anchor:middle;}#d65 .node .katex path{fill:#000;stroke:#000;stroke-width:1px;}#d65 .rough-node .label,#d65 .node .label,#d65 .image-shape .label,#d65 .icon-shape .label{text-align:center;}#d65 .node.clickable{cursor:pointer;}#d65 .root .anchor path{fill:#666!important;stroke-width:0;stroke:#666;}#d65 .arrowheadPath{fill:#333333;}#d65 .edgePath .path{stroke:#666;stroke-width:1px;}#d65 .flowchart-link{stroke:#666;fill:none;}#d65 .edgeLabel{background-color:white;text-align:center;}#d65 .edgeLabel p{background-color:white;}#d65 .edgeLabel rect{opacity:0.5;background-color:white;fill:white;}#d65 .labelBkg{background-color:rgba(255, 255, 255, 0.5);}#d65 .cluster rect{fill:hsl(0, 0%, 98.9215686275%);stroke:#707070;stroke-width:1px;}#d65 .cluster text{fill:#333;}#d65 .cluster span{color:#333;}#d65 div.mermaidTooltip{position:absolute;text-align:center;max-width:200px;padding:2px;font-family:"trebuchet ms",verdana,arial,sans-serif;font-size:12px;background:hsl(-160, 0%, 93.3333333333%);border:1px solid #707070;border-radius:2px;pointer-events:none;z-index:100;}#d65 .flowchartTitleText{text-anchor:middle;font-size:18px;fill:#000000;}#d65 rect.text{fill:none;stroke-width:0;}#d65 .icon-shape,#d65 .image-shape{background-color:white;text-align:center;}#d65 .icon-shape p,#d65 .image-shape p{background-color:white;padding:2px;}#d65 .icon-shape .label rect,#d65 .image-shape .label rect{opacity:0.5;background-color:white;fill:white;}#d65 .label-icon{display:inline-block;height:1em;overflow:visible;vertical-align:-0.125em;}#d65 .node .label-icon path{fill:currentColor;stroke:revert;stroke-width:revert;}#d65 .node .neo-node{stroke:#999;}#d65 [data-look="neo"].node rect,#d65 [data-look="neo"].cluster rect,#d65 [data-look="neo"].node polygon{stroke:url(#d65-gradient);filter:drop-shadow( 1px 2px 2px rgba(185,185,185,1));}#d65 [data-look="neo"].swimlane.cluster rect{filter:none;}#d65 [data-look="neo"].node path{stroke:url(#d65-gradient);stroke-width:1px;}#d65 [data-look="neo"].node .outer-path{filter:drop-shadow( 1px 2px 2px rgba(185,185,185,1));}#d65 [data-look="neo"].node .neo-line path{stroke:#999;filter:none;}#d65 [data-look="neo"].node circle{stroke:url(#d65-gradient);filter:drop-shadow( 1px 2px 2px rgba(185,185,185,1));}#d65 [data-look="neo"].node circle .state-start{fill:#000000;}#d65 [data-look="neo"].icon-shape .icon{fill:url(#d65-gradient);filter:drop-shadow( 1px 2px 2px rgba(185,185,185,1));}#d65 [data-look="neo"].icon-shape .icon-neo path{stroke:url(#d65-gradient);filter:drop-shadow( 1px 2px 2px rgba(185,185,185,1));}#d65 :root{--mermaid-font-family:"trebuchet ms",verdana,arial,sans-serif;}#d65 .start rect{fill:rgb(31, 111, 67)!important;color:rgb(255, 255, 255)!important;}#d65 .start polygon{fill:rgb(31, 111, 67)!important;color:rgb(255, 255, 255)!important;}#d65 .start ellipse{fill:rgb(31, 111, 67)!important;color:rgb(255, 255, 255)!important;}#d65 .start circle{fill:rgb(31, 111, 67)!important;color:rgb(255, 255, 255)!important;}#d65 .start path{fill:rgb(31, 111, 67)!important;color:rgb(255, 255, 255)!important;}#d65 .start tspan{fill:rgb(255, 255, 255)!important;}#d65 .dec rect{fill:rgb(255, 243, 196)!important;stroke:rgb(179, 134, 0)!important;color:rgb(34, 34, 34)!important;}#d65 .dec polygon{fill:rgb(255, 243, 196)!important;stroke:rgb(179, 134, 0)!important;color:rgb(34, 34, 34)!important;}#d65 .dec ellipse{fill:rgb(255, 243, 196)!important;stroke:rgb(179, 134, 0)!important;color:rgb(34, 34, 34)!important;}#d65 .dec circle{fill:rgb(255, 243, 196)!important;stroke:rgb(179, 134, 0)!important;color:rgb(34, 34, 34)!important;}#d65 .dec path{fill:rgb(255, 243, 196)!important;stroke:rgb(179, 134, 0)!important;color:rgb(34, 34, 34)!important;}#d65 .dec tspan{fill:rgb(34, 34, 34)!important;}#d65 .db rect{fill:rgb(220, 232, 247)!important;stroke:rgb(42, 91, 154)!important;color:rgb(17, 34, 34)!important;}#d65 .db polygon{fill:rgb(220, 232, 247)!important;stroke:rgb(42, 91, 154)!important;color:rgb(17, 34, 34)!important;}#d65 .db ellipse{fill:rgb(220, 232, 247)!important;stroke:rgb(42, 91, 154)!important;color:rgb(17, 34, 34)!important;}#d65 .db circle{fill:rgb(220, 232, 247)!important;stroke:rgb(42, 91, 154)!important;color:rgb(17, 34, 34)!important;}#d65 .db path{fill:rgb(220, 232, 247)!important;stroke:rgb(42, 91, 154)!important;color:rgb(17, 34, 34)!important;}#d65 .db tspan{fill:rgb(17, 34, 34)!important;}#d65 .err rect{fill:rgb(251, 218, 218)!important;stroke:rgb(180, 35, 24)!important;color:rgb(90, 13, 13)!important;}#d65 .err polygon{fill:rgb(251, 218, 218)!important;stroke:rgb(180, 35, 24)!important;color:rgb(90, 13, 13)!important;}#d65 .err ellipse{fill:rgb(251, 218, 218)!important;stroke:rgb(180, 35, 24)!important;color:rgb(90, 13, 13)!important;}#d65 .err circle{fill:rgb(251, 218, 218)!important;stroke:rgb(180, 35, 24)!important;color:rgb(90, 13, 13)!important;}#d65 .err path{fill:rgb(251, 218, 218)!important;stroke:rgb(180, 35, 24)!important;color:rgb(90, 13, 13)!important;}#d65 .err tspan{fill:rgb(90, 13, 13)!important;}#d65 .res rect{fill:rgb(217, 242, 227)!important;stroke:rgb(31, 122, 74)!important;color:rgb(15, 61, 36)!important;}#d65 .res polygon{fill:rgb(217, 242, 227)!important;stroke:rgb(31, 122, 74)!important;color:rgb(15, 61, 36)!important;}#d65 .res ellipse{fill:rgb(217, 242, 227)!important;stroke:rgb(31, 122, 74)!important;color:rgb(15, 61, 36)!important;}#d65 .res circle{fill:rgb(217, 242, 227)!important;stroke:rgb(31, 122, 74)!important;color:rgb(15, 61, 36)!important;}#d65 .res path{fill:rgb(217, 242, 227)!important;stroke:rgb(31, 122, 74)!important;color:rgb(15, 61, 36)!important;}#d65 .res tspan{fill:rgb(15, 61, 36)!important;}</style><g><marker id="d65_flowchart-v2-pointEnd" class="marker flowchart-v2" viewBox="0 0 10 10" refX="5" refY="5" markerUnits="userSpaceOnUse" markerWidth="8" markerHeight="8" orient="auto"><path d="M 0 0 L 10 5 L 0 10 z" class="arrowMarkerPath" style="stroke-width: 1; stroke-dasharray: 1, 0;"></path></marker><marker id="d65_flowchart-v2-pointStart" class="marker flowchart-v2" viewBox="0 0 10 10" refX="4.5" refY="5" markerUnits="userSpaceOnUse" markerWidth="8" markerHeight="8" orient="auto"><path d="M 0 5 L 10 10 L 10 0 z" class="arrowMarkerPath" style="stroke-width: 1; stroke-dasharray: 1, 0;"></path></marker><marker id="d65_flowchart-v2-pointEnd-margin" class="marker flowchart-v2" viewBox="0 0 11.5 14" refX="11.5" refY="7" markerUnits="userSpaceOnUse" markerWidth="10.5" markerHeight="14" orient="auto"><path d="M 0 0 L 11.5 7 L 0 14 z" class="arrowMarkerPath" style="stroke-width: 0; stroke-dasharray: 1, 0;"></path></marker><marker id="d65_flowchart-v2-pointStart-margin" class="marker flowchart-v2" viewBox="0 0 11.5 14" refX="1" refY="7" markerUnits="userSpaceOnUse" markerWidth="11.5" markerHeight="14" orient="auto"><polygon points="0,7 11.5,14 11.5,0" class="arrowMarkerPath" style="stroke-width: 0; stroke-dasharray: 1, 0;"></polygon></marker><marker id="d65_flowchart-v2-circleEnd" class="marker flowchart-v2" viewBox="0 0 10 10" refX="11" refY="5" markerUnits="userSpaceOnUse" markerWidth="11" markerHeight="11" orient="auto"><circle cx="5" cy="5" r="5" class="arrowMarkerPath" style="stroke-width: 1; stroke-dasharray: 1, 0;"></circle></marker><marker id="d65_flowchart-v2-circleStart" class="marker flowchart-v2" viewBox="0 0 10 10" refX="-1" refY="5" markerUnits="userSpaceOnUse" markerWidth="11" markerHeight="11" orient="auto"><circle cx="5" cy="5" r="5" class="arrowMarkerPath" style="stroke-width: 1; stroke-dasharray: 1, 0;"></circle></marker><marker id="d65_flowchart-v2-circleEnd-margin" class="marker flowchart-v2" viewBox="0 0 10 10" refY="5" refX="12.25" markerUnits="userSpaceOnUse" markerWidth="14" markerHeight="14" orient="auto"><circle cx="5" cy="5" r="5" class="arrowMarkerPath" style="stroke-width: 0; stroke-dasharray: 1, 0;"></circle></marker><marker id="d65_flowchart-v2-circleStart-margin" class="marker flowchart-v2" viewBox="0 0 10 10" refX="-2" refY="5" markerUnits="userSpaceOnUse" markerWidth="14" markerHeight="14" orient="auto"><circle cx="5" cy="5" r="5" class="arrowMarkerPath" style="stroke-width: 0; stroke-dasharray: 1, 0;"></circle></marker><marker id="d65_flowchart-v2-crossEnd" class="marker cross flowchart-v2" viewBox="0 0 11 11" refX="12" refY="5.2" markerUnits="userSpaceOnUse" markerWidth="11" markerHeight="11" orient="auto"><path d="M 1,1 l 9,9 M 10,1 l -9,9" class="arrowMarkerPath" style="stroke-width: 2; stroke-dasharray: 1, 0;"></path></marker><marker id="d65_flowchart-v2-crossStart" class="marker cross flowchart-v2" viewBox="0 0 11 11" refX="-1" refY="5.2" markerUnits="userSpaceOnUse" markerWidth="11" markerHeight="11" orient="auto"><path d="M 1,1 l 9,9 M 10,1 l -9,9" class="arrowMarkerPath" style="stroke-width: 2; stroke-dasharray: 1, 0;"></path></marker><marker id="d65_flowchart-v2-crossEnd-margin" class="marker cross flowchart-v2" viewBox="0 0 15 15" refX="17.7" refY="7.5" markerUnits="userSpaceOnUse" markerWidth="12" markerHeight="12" orient="auto"><path d="M 1,1 L 14,14 M 1,14 L 14,1" class="arrowMarkerPath" style="stroke-width: 2.5;"></path></marker><marker id="d65_flowchart-v2-crossStart-margin" class="marker cross flowchart-v2" viewBox="0 0 15 15" refX="-3.5" refY="7.5" markerUnits="userSpaceOnUse" markerWidth="12" markerHeight="12" orient="auto"><path d="M 1,1 L 14,14 M 1,14 L 14,1" class="arrowMarkerPath" style="stroke-width: 2.5; stroke-dasharray: 1, 0;"></path></marker><g class="root"><g class="clusters"></g><g class="edgePaths"><path d="M293.5,71.5L293.417,75.583C293.333,79.667,293.167,87.833,293.083,95.417C293,103,293,110,293,113.5L293,117" id="d65-L_C_L_0" class=" edge-thickness-normal edge-pattern-solid edge-thickness-normal edge-pattern-solid flowchart-link" style=";" data-edge="true" data-et="edge" data-id="L_C_L_0" data-points="W3sieCI6MjkzLjUsInkiOjcxLjQ5OTk5OTk5OTk5OTk5fSx7IngiOjI5MywieSI6OTZ9LHsieCI6MjkzLCJ5IjoxMjF9XQ==" data-look="classic" marker-end="url(#d65_flowchart-v2-pointEnd)"></path><path d="M229.296,323.843L214.08,340.461C198.864,357.078,168.432,390.312,153.216,412.263C138,434.214,138,444.88,138,450.214L138,455.547" id="d65-L_L_SK_0" class=" edge-thickness-normal edge-pattern-solid edge-thickness-normal edge-pattern-solid flowchart-link" style=";" data-edge="true" data-et="edge" data-id="L_L_SK_0" data-points="W3sieCI6MjI5LjI5NjQwNzgzNDgyMzA0LCJ5IjozMjMuODQzMjgyODM0ODIzfSx7IngiOjEzOCwieSI6NDIzLjU0Njg3NX0seyJ4IjoxMzgsInkiOjQ1OS41NDY4NzV9XQ==" data-look="classic" marker-end="url(#d65_flowchart-v2-pointEnd)"></path><path d="M356.704,323.843L371.92,340.461C387.136,357.078,417.568,390.312,432.784,414.263C448,438.214,448,452.88,448,460.214L448,467.547" id="d65-L_L_R_0" class=" edge-thickness-normal edge-pattern-solid edge-thickness-normal edge-pattern-solid flowchart-link" style=";" data-edge="true" data-et="edge" data-id="L_L_R_0" data-points="W3sieCI6MzU2LjcwMzU5MjE2NTE3NywieSI6MzIzLjg0MzI4MjgzNDgyM30seyJ4Ijo0NDgsInkiOjQyMy41NDY4NzV9LHsieCI6NDQ4LCJ5Ijo0NzEuNTQ2ODc1fV0=" data-look="classic" marker-end="url(#d65_flowchart-v2-pointEnd)"></path><path d="M448,549.547L448,555.714C448,561.88,448,574.214,448,583.88C448,593.547,448,600.547,448,604.047L448,607.547" id="d65-L_R_J1_0" class=" edge-thickness-normal edge-pattern-solid edge-thickness-normal edge-pattern-solid flowchart-link" style=";" data-edge="true" data-et="edge" data-id="L_R_J1_0" data-points="W3sieCI6NDQ4LCJ5Ijo1NDkuNTQ2ODc1fSx7IngiOjQ0OCwieSI6NTg2LjU0Njg3NX0seyJ4Ijo0NDgsInkiOjYxMS41NDY4NzV9XQ==" data-look="classic" marker-end="url(#d65_flowchart-v2-pointEnd)"></path><path d="M448,761.547L448,765.714C448,769.88,448,778.214,448,785.88C448,793.547,448,800.547,448,804.047L448,807.547" id="d65-L_J1_J2_0" class=" edge-thickness-normal edge-pattern-solid edge-thickness-normal edge-pattern-solid flowchart-link" style=";" data-edge="true" data-et="edge" data-id="L_J1_J2_0" data-points="W3sieCI6NDQ4LCJ5Ijo3NjEuNTQ2ODc1fSx7IngiOjQ0OCwieSI6Nzg2LjU0Njg3NX0seyJ4Ijo0NDgsInkiOjgxMS41NDY4NzV9XQ==" data-look="classic" marker-end="url(#d65_flowchart-v2-pointEnd)"></path><path d="M448,913.547L448,917.714C448,921.88,448,930.214,448,937.88C448,945.547,448,952.547,448,956.047L448,959.547" id="d65-L_J2_J3_0" class=" edge-thickness-normal edge-pattern-solid edge-thickness-normal edge-pattern-solid flowchart-link" style=";" data-edge="true" data-et="edge" data-id="L_J2_J3_0" data-points="W3sieCI6NDQ4LCJ5Ijo5MTMuNTQ2ODc1fSx7IngiOjQ0OCwieSI6OTM4LjU0Njg3NX0seyJ4Ijo0NDgsInkiOjk2My41NDY4NzV9XQ==" data-look="classic" marker-end="url(#d65_flowchart-v2-pointEnd)"></path><path d="M448,1065.547L448,1069.714C448,1073.88,448,1082.214,448,1089.88C448,1097.547,448,1104.547,448,1108.047L448,1111.547" id="d65-L_J3_J4_0" class=" edge-thickness-normal edge-pattern-solid edge-thickness-normal edge-pattern-solid flowchart-link" style=";" data-edge="true" data-et="edge" data-id="L_J3_J4_0" data-points="W3sieCI6NDQ4LCJ5IjoxMDY1LjU0Njg3NX0seyJ4Ijo0NDgsInkiOjEwOTAuNTQ2ODc1fSx7IngiOjQ0OCwieSI6MTExNS41NDY4NzV9XQ==" data-look="classic" marker-end="url(#d65_flowchart-v2-pointEnd)"></path><path d="M448,1265.547L448,1269.714C448,1273.88,448,1282.214,448,1289.88C448,1297.547,448,1304.547,448,1308.047L448,1311.547" id="d65-L_J4_J5_0" class=" edge-thickness-normal edge-pattern-solid edge-thickness-normal edge-pattern-solid flowchart-link" style=";" data-edge="true" data-et="edge" data-id="L_J4_J5_0" data-points="W3sieCI6NDQ4LCJ5IjoxMjY1LjU0Njg3NX0seyJ4Ijo0NDgsInkiOjEyOTAuNTQ2ODc1fSx7IngiOjQ0OCwieSI6MTMxNS41NDY4NzV9XQ==" data-look="classic" marker-end="url(#d65_flowchart-v2-pointEnd)"></path><path d="M448,1417.547L448,1421.714C448,1425.88,448,1434.214,448,1441.88C448,1449.547,448,1456.547,448,1460.047L448,1463.547" id="d65-L_J5_J6_0" class=" edge-thickness-normal edge-pattern-solid edge-thickness-normal edge-pattern-solid flowchart-link" style=";" data-edge="true" data-et="edge" data-id="L_J5_J6_0" data-points="W3sieCI6NDQ4LCJ5IjoxNDE3LjU0Njg3NX0seyJ4Ijo0NDgsInkiOjE0NDIuNTQ2ODc1fSx7IngiOjQ0OCwieSI6MTQ2Ny41NDY4NzV9XQ==" data-look="classic" marker-end="url(#d65_flowchart-v2-pointEnd)"></path><path d="M448,1569.547L448,1573.714C448,1577.88,448,1586.214,448,1593.88C448,1601.547,448,1608.547,448,1612.047L448,1615.547" id="d65-L_J6_J7_0" class=" edge-thickness-normal edge-pattern-solid edge-thickness-normal edge-pattern-solid flowchart-link" style=";" data-edge="true" data-et="edge" data-id="L_J6_J7_0" data-points="W3sieCI6NDQ4LCJ5IjoxNTY5LjU0Njg3NX0seyJ4Ijo0NDgsInkiOjE1OTQuNTQ2ODc1fSx7IngiOjQ0OCwieSI6MTYxOS41NDY4NzV9XQ==" data-look="classic" marker-end="url(#d65_flowchart-v2-pointEnd)"></path><path d="M448,1721.547L448,1725.714C448,1729.88,448,1738.214,448,1745.88C448,1753.547,448,1760.547,448,1764.047L448,1767.547" id="d65-L_J7_J8_0" class=" edge-thickness-normal edge-pattern-solid edge-thickness-normal edge-pattern-solid flowchart-link" style=";" data-edge="true" data-et="edge" data-id="L_J7_J8_0" data-points="W3sieCI6NDQ4LCJ5IjoxNzIxLjU0Njg3NX0seyJ4Ijo0NDgsInkiOjE3NDYuNTQ2ODc1fSx7IngiOjQ0OCwieSI6MTc3MS41NDY4NzV9XQ==" data-look="classic" marker-end="url(#d65_flowchart-v2-pointEnd)"></path><path d="M448,1873.547L448,1877.714C448,1881.88,448,1890.214,448,1897.88C448,1905.547,448,1912.547,448,1916.047L448,1919.547" id="d65-L_J8_F_0" class=" edge-thickness-normal edge-pattern-solid edge-thickness-normal edge-pattern-solid flowchart-link" style=";" data-edge="true" data-et="edge" data-id="L_J8_F_0" data-points="W3sieCI6NDQ4LCJ5IjoxODczLjU0Njg3NX0seyJ4Ijo0NDgsInkiOjE4OTguNTQ2ODc1fSx7IngiOjQ0OCwieSI6MTkyMy41NDY4NzV9XQ==" data-look="classic" marker-end="url(#d65_flowchart-v2-pointEnd)"></path></g><g class="edgeLabels"><g class="edgeLabel"><g class="label" data-id="L_C_L_0" transform="translate(0, 0)"><text y="-10.1" text-anchor="middle"><tspan class="text-outer-tspan row" x="0" y="-0.1em" dy="1.1em" text-anchor="middle"></tspan></text></g></g><g><rect class="background" style="stroke: none"></rect></g><g class="edgeLabel" transform="translate(138, 423.546875)"><g class="label" data-id="L_L_SK_0" transform="translate(0, -11)"><g><rect class="background" style="" x="-18.8984375" y="0" width="37.796875" height="22"></rect><text y="-10.1" text-anchor="middle" style=""><tspan class="text-outer-tspan row" x="0" y="-0.1em" dy="1.1em" text-anchor="middle"><tspan font-style="normal" class="text-inner-tspan" font-weight="normal">busy</tspan></tspan></text></g></g></g><g class="edgeLabel" transform="translate(448, 423.546875)"><g class="label" data-id="L_L_R_0" transform="translate(0, -11)"><g><rect class="background" style="" x="-32.6875" y="0" width="65.375" height="22"></rect><text y="-10.1" text-anchor="middle" style=""><tspan class="text-outer-tspan row" x="0" y="-0.1em" dy="1.1em" text-anchor="middle"><tspan font-style="normal" class="text-inner-tspan" font-weight="normal">acquired</tspan></tspan></text></g></g></g><g class="edgeLabel"><g class="label" data-id="L_R_J1_0" transform="translate(0, 0)"><text y="-10.1" text-anchor="middle"><tspan class="text-outer-tspan row" x="0" y="-0.1em" dy="1.1em" text-anchor="middle"></tspan></text></g></g><g><rect class="background" style="stroke: none"></rect></g><g class="edgeLabel"><g class="label" data-id="L_J1_J2_0" transform="translate(0, 0)"><text y="-10.1" text-anchor="middle"><tspan class="text-outer-tspan row" x="0" y="-0.1em" dy="1.1em" text-anchor="middle"></tspan></text></g></g><g><rect class="background" style="stroke: none"></rect></g><g class="edgeLabel"><g class="label" data-id="L_J2_J3_0" transform="translate(0, 0)"><text y="-10.1" text-anchor="middle"><tspan class="text-outer-tspan row" x="0" y="-0.1em" dy="1.1em" text-anchor="middle"></tspan></text></g></g><g><rect class="background" style="stroke: none"></rect></g><g class="edgeLabel"><g class="label" data-id="L_J3_J4_0" transform="translate(0, 0)"><text y="-10.1" text-anchor="middle"><tspan class="text-outer-tspan row" x="0" y="-0.1em" dy="1.1em" text-anchor="middle"></tspan></text></g></g><g><rect class="background" style="stroke: none"></rect></g><g class="edgeLabel"><g class="label" data-id="L_J4_J5_0" transform="translate(0, 0)"><text y="-10.1" text-anchor="middle"><tspan class="text-outer-tspan row" x="0" y="-0.1em" dy="1.1em" text-anchor="middle"></tspan></text></g></g><g><rect class="background" style="stroke: none"></rect></g><g class="edgeLabel"><g class="label" data-id="L_J5_J6_0" transform="translate(0, 0)"><text y="-10.1" text-anchor="middle"><tspan class="text-outer-tspan row" x="0" y="-0.1em" dy="1.1em" text-anchor="middle"></tspan></text></g></g><g><rect class="background" style="stroke: none"></rect></g><g class="edgeLabel"><g class="label" data-id="L_J6_J7_0" transform="translate(0, 0)"><text y="-10.1" text-anchor="middle"><tspan class="text-outer-tspan row" x="0" y="-0.1em" dy="1.1em" text-anchor="middle"></tspan></text></g></g><g><rect class="background" style="stroke: none"></rect></g><g class="edgeLabel"><g class="label" data-id="L_J7_J8_0" transform="translate(0, 0)"><text y="-10.1" text-anchor="middle"><tspan class="text-outer-tspan row" x="0" y="-0.1em" dy="1.1em" text-anchor="middle"></tspan></text></g></g><g><rect class="background" style="stroke: none"></rect></g><g class="edgeLabel"><g class="label" data-id="L_J8_F_0" transform="translate(0, 0)"><text y="-10.1" text-anchor="middle"><tspan class="text-outer-tspan row" x="0" y="-0.1em" dy="1.1em" text-anchor="middle"></tspan></text></g></g><g><rect class="background" style="stroke: none"></rect></g></g><g class="nodes"><g class="node default start " id="d65-flowchart-C-0" data-look="classic" transform="translate(293, 39.5)"><g class="basic label-container outer-path"><path d="M-83.875 -31.5 C-43.02501409725454 -31.5, -2.175028194509082 -31.5, 83.875 -31.5 C83.875 -31.5, 83.875 -31.5, 83.875 -31.5 C84.65173073214568 -31.475091757234743, 85.42846146429136 -31.450183514469483, 85.89321192939245 -31.435279871635593 C86.38462783827562 -31.387873569919734, 86.87604374715879 -31.340467268203874, 87.90313059306193 -31.241385435432253 C88.37272863960214 -31.16546446505487, 88.84232668614236 -31.089543494677493, 89.89649680409322 -30.91911344521856 C90.3084347883383 -30.825091288461188, 90.72037277258337 -30.731069131703816, 91.86511939314947 -30.469788185729428 C92.35345385018074 -30.324853082202416, 92.84178830721203 -30.17991797867541, 93.80090886774406 -29.895256030836062 C94.23809853619318 -29.734366191509793, 94.6752882046423 -29.573476352183523, 95.69591065370028 -29.197877856399685 C96.27581917887233 -28.94116955468122, 96.85572770404436 -28.68446125296276, 97.54233778220308 -28.380519338926202 C97.97722904949096 -28.153636843343264, 98.41212031677884 -27.92675434776033, 99.33260288812403 -27.44653917988677 C99.79459752564533 -27.166475315639513, 100.25659216316662 -26.886411451392256, 101.05934938813228 -26.399775304092984 C101.42185585451831 -26.14690648579409, 101.78436232090435 -25.894037667495198, 102.7154817104733 -25.244529088840633 C103.19776590610482 -24.859920276945942, 103.68005010173633 -24.475311465051252, 104.29419445219533 -23.985547688627737 C104.8498969621063 -23.480873372209302, 105.40559947201727 -22.976199055790868, 105.78900034400982 -22.62800452807842 C106.20216389443141 -22.20137924090979, 106.615327444853 -21.77475395374116, 107.19375690787243 -21.177478043231485 C107.6917310997824 -20.5925292218798, 108.18970529169238 -20.007580400528113, 108.50269169774293 -19.63992875855011 C108.81420688481303 -19.222526787493543, 109.12572207188313 -18.805124816436976, 109.7104260198041 -18.02167479384835 C110.05420543089599 -17.493537300713626, 110.39798484198789 -16.965399807578905, 110.8119970346684 -16.329365901781543 C111.11608249069498 -15.789431382614959, 111.42016794672156 -15.249496863448375, 111.8028781507495 -14.56995614258631 C112.01098320394132 -14.137821546898682, 112.21908825713314 -13.705686951211053, 112.67899762499809 -12.750675308355413 C112.979652432912 -12.00805212004278, 113.28030724082592 -11.265428931730145, 113.43675529456745 -10.878999214271206 C113.60845546664602 -10.361865652677878, 113.78015563872458 -9.84473209108455, 114.07303737065482 -8.962618978877531 C114.19927986512089 -8.48120163363518, 114.32552235958697 -7.9997842883928305, 114.58522923372745 -7.009409419623907 C114.70640328417902 -6.387206280699735, 114.82757733463059 -5.765003141775564, 114.97122617755518 -5.027396693551458 C115.06354895116414 -4.311359492634178, 115.15587172477308 -3.595322291716898, 115.22944205789975 -3.024725316091981 C115.25715312056676 -2.5931031470861674, 115.28486418323376 -2.1614809780803537, 115.35881581032167 -1.0096246935071378 C115.35881581032167 -0.5030812873990844, 115.35881581032167 0.003462118708968953, 115.35881581032167 1.00962469350713 C115.32129045205349 1.5941124384581524, 115.28376509378529 2.178600183409175, 115.22944205789975 3.02472531609196 C115.17026494033776 3.4836913540590713, 115.11108782277579 3.9426573920261827, 114.97122617755518 5.027396693551435 C114.85217655662058 5.638691335904364, 114.73312693568596 6.249985978257294, 114.58522923372745 7.0094094196239 C114.44759661677593 7.534262238413546, 114.30996399982442 8.059115057203192, 114.07303737065482 8.96261897887751 C113.86644556163625 9.584840591706726, 113.65985375261769 10.207062204535944, 113.43675529456746 10.878999214271184 C113.26082934174953 11.313539719028373, 113.08490338893161 11.74808022378556, 112.67899762499809 12.750675308355405 C112.49988979151095 13.12259655688515, 112.32078195802383 13.494517805414894, 111.8028781507495 14.569956142586303 C111.53888203030206 15.038707986946704, 111.27488590985463 15.507459831307104, 110.81199703466841 16.329365901781536 C110.3862733274152 16.983391838944573, 109.96054962016198 17.63741777610761, 109.71042601980412 18.021674793848334 C109.37478173476578 18.47140755797631, 109.03913744972742 18.921140322104286, 108.50269169774295 19.639928758550102 C108.06790826598183 20.150650117374827, 107.63312483422071 20.66137147619955, 107.19375690787246 21.177478043231467 C106.65194179252043 21.736946633680677, 106.11012667716842 22.296415224129888, 105.78900034400982 22.628004528078414 C105.46034566896459 22.926480008228303, 105.13169099391936 23.224955488378193, 104.29419445219536 23.985547688627715 C103.91720407701784 24.286187480696576, 103.54021370184033 24.586827272765436, 102.71548171047331 25.24452908884063 C102.12687211759769 25.65511766033206, 101.53826252472207 26.06570623182349, 101.05934938813229 26.399775304092973 C100.48827666568347 26.745962944437274, 99.91720394323467 27.092150584781574, 99.33260288812404 27.446539179886766 C98.82800123734388 27.70978953788599, 98.32339958656374 27.97303989588521, 97.54233778220309 28.3805193389262 C96.84677329683758 28.688425103410147, 96.15120881147207 28.9963308678941, 95.6959106537003 29.197877856399682 C95.00283107019932 29.45293754988548, 94.30975148669833 29.707997243371278, 93.80090886774407 29.895256030836055 C93.06311193982181 30.11423028626828, 92.32531501189955 30.333204541700507, 91.86511939314951 30.46978818572942 C91.2586788699148 30.60820427776349, 90.6522383466801 30.74662036979756, 89.89649680409323 30.919113445218557 C89.3505539145893 31.00737725774321, 88.80461102508535 31.09564107026787, 87.90313059306196 31.24138543543225 C87.31767355123692 31.297863772142, 86.7322165094119 31.354342108851753, 85.89321192939245 31.435279871635593 C85.09338558514143 31.46092874572819, 84.29355924089042 31.486577619820782, 83.875 31.5 C83.875 31.5, 83.875 31.5, 83.875 31.5 C25.849607824751438 31.5, -32.175784350497125 31.5, -83.875 31.5 C-84.4646373552158 31.481091477677715, -85.05427471043159 31.462182955355434, -85.89321192939244 31.435279871635593 C-86.41942898080283 31.384516345554626, -86.94564603221325 31.333752819473663, -87.90313059306195 31.24138543543225 C-88.32597136091881 31.17302381926428, -88.74881212877568 31.10466220309631, -89.89649680409323 30.919113445218557 C-90.67578739959806 30.741245452140966, -91.45507799510288 30.563377459063375, -91.86511939314947 30.469788185729428 C-92.34781538332405 30.32652654956857, -92.83051137349862 30.18326491340771, -93.80090886774403 29.89525603083607 C-94.41284249585263 29.670058799039655, -95.02477612396125 29.444861567243237, -95.69591065370028 29.197877856399685 C-96.19324956758015 28.97772067225977, -96.69058848146003 28.757563488119857, -97.54233778220308 28.380519338926206 C-98.03856144761222 28.121639770528677, -98.53478511302139 27.862760202131152, -99.33260288812403 27.446539179886773 C-99.80450071592061 27.160471943497033, -100.27639854371719 26.874404707107292, -101.05934938813226 26.399775304092994 C-101.61474687503247 26.012354060001115, -102.17014436193267 25.62493281590924, -102.7154817104733 25.244529088840636 C-103.10407151079824 24.934639063890373, -103.49266131112317 24.62474903894011, -104.29419445219533 23.98554768862774 C-104.72750999262597 23.59202197970957, -105.16082553305662 23.198496270791402, -105.7890003440098 22.628004528078435 C-106.23844410199659 22.163916947938297, -106.68788785998339 21.69982936779816, -107.19375690787244 21.177478043231478 C-107.64232363770334 20.650566038202104, -108.09089036753424 20.123654033172727, -108.50269169774293 19.639928758550113 C-108.83328733049309 19.19696072854663, -109.16388296324325 18.753992698543147, -109.7104260198041 18.021674793848355 C-110.01762038624173 17.54974175376264, -110.32481475267934 17.077808713676923, -110.8119970346684 16.329365901781557 C-111.01516920367864 15.968613142290842, -111.2183413726889 15.607860382800128, -111.8028781507495 14.569956142586314 C-112.06559536390733 14.024418228216232, -112.32831257706516 13.478880313846151, -112.67899762499809 12.750675308355417 C-112.89797102377337 12.209806779817818, -113.11694442254866 11.668938251280219, -113.43675529456745 10.878999214271209 C-113.56769651937974 10.484625107787545, -113.69863774419204 10.090251001303882, -114.07303737065482 8.962618978877522 C-114.20574888775245 8.456532446648907, -114.33846040485007 7.950445914420293, -114.58522923372743 7.009409419623911 C-114.70051715673735 6.417430301079192, -114.81580507974725 5.825451182534473, -114.97122617755518 5.027396693551461 C-115.0270737977224 4.594253579894586, -115.0829214178896 4.1611104662377105, -115.22944205789975 3.024725316091999 C-115.27211405655626 2.360074492799469, -115.31478605521276 1.6954236695069387, -115.35881581032167 1.0096246935071416 C-115.35881581032167 0.2562548630089194, -115.35881581032167 -0.49711496748930273, -115.35881581032167 -1.0096246935071262 C-115.3248548869114 -1.5385934883861616, -115.29089396350112 -2.0675622832651968, -115.22944205789975 -3.024725316091956 C-115.17441701703115 -3.4514886671454548, -115.11939197616256 -3.878252018198954, -114.97122617755518 -5.027396693551446 C-114.85809527107178 -5.608299988118214, -114.74496436458836 -6.18920328268498, -114.58522923372745 -7.009409419623896 C-114.46245413105761 -7.477604097170048, -114.33967902838779 -7.9457987747162, -114.07303737065482 -8.962618978877506 C-113.88368958323932 -9.532904346100032, -113.69434179582382 -10.103189713322559, -113.43675529456746 -10.878999214271168 C-113.19456302278554 -11.477218808041526, -112.95237075100363 -12.075438401811883, -112.67899762499809 -12.750675308355401 C-112.46256635246422 -13.20009947665936, -112.24613507993035 -13.64952364496332, -111.8028781507495 -14.5699561425863 C-111.51642932316973 -15.0785750420433, -111.22998049558994 -15.587193941500301, -110.8119970346684 -16.329365901781546 C-110.57930514225646 -16.686843135048324, -110.34661324984454 -17.044320368315102, -109.71042601980412 -18.021674793848344 C-109.4414235375084 -18.382113613494322, -109.17242105521268 -18.742552433140297, -108.50269169774295 -19.639928758550102 C-108.0050709234262 -20.224462435486746, -107.50745014910947 -20.808996112423387, -107.19375690787246 -21.177478043231467 C-106.89924164558892 -21.48158923169195, -106.60472638330536 -21.785700420152434, -105.78900034400984 -22.628004528078403 C-105.31248145814638 -23.060766372220773, -104.83596257228292 -23.493528216363146, -104.29419445219536 -23.98554768862771 C-103.76104604762871 -24.410719353594725, -103.22789764306206 -24.835891018561735, -102.71548171047331 -25.244529088840626 C-102.2673154241319 -25.557150489386547, -101.81914913779049 -25.869771889932466, -101.0593493881323 -26.39977530409297 C-100.68638147438499 -26.62587064520934, -100.31341356063768 -26.851965986325705, -99.33260288812404 -27.446539179886763 C-98.73378417720087 -27.758942517813693, -98.13496546627769 -28.071345855740624, -97.54233778220309 -28.3805193389262 C-96.97937473639783 -28.62972637959878, -96.41641169059255 -28.878933420271355, -95.6959106537003 -29.19787785639968 C-94.94944198424068 -29.47258522704156, -94.20297331478106 -29.747292597683437, -93.80090886774407 -29.895256030836055 C-93.31324592031875 -30.039991833836844, -92.82558297289341 -30.184727636837636, -91.86511939314951 -30.469788185729417 C-91.10230581655817 -30.643895406762603, -90.33949223996683 -30.818002627795785, -89.89649680409325 -30.919113445218553 C-89.23378451301652 -31.026255629029265, -88.5710722219398 -31.133397812839974, -87.90313059306196 -31.24138543543225 C-87.26887013891388 -31.302571778634114, -86.63460968476582 -31.363758121835982, -85.89321192939246 -31.435279871635593 C-85.13521407625821 -31.459587387432293, -84.37721622312395 -31.483894903228993, -83.87500000000001 -31.5 C-83.87500000000001 -31.5, -83.87500000000001 -31.5, -83.875 -31.5" stroke="none" stroke-width="0" fill="#1f6f43" style="fill:#1f6f43 !important"></path><path d="M-83.875 -31.5 C-24.881267937051597 -31.5, 34.11246412589681 -31.5, 83.875 -31.5 M-83.875 -31.5 C-47.958940432187376 -31.5, -12.042880864374752 -31.5, 83.875 -31.5 M83.875 -31.5 C83.875 -31.5, 83.875 -31.5, 83.875 -31.5 M83.875 -31.5 C83.875 -31.5, 83.875 -31.5, 83.875 -31.5 M83.875 -31.5 C84.2911791501318 -31.486653944698848, 84.70735830026359 -31.47330788939769, 85.89321192939245 -31.435279871635593 M83.875 -31.5 C84.59077278203013 -31.477046560047494, 85.30654556406024 -31.454093120094992, 85.89321192939245 -31.435279871635593 M85.89321192939245 -31.435279871635593 C86.54404999234397 -31.37249430644995, 87.19488805529551 -31.30970874126431, 87.90313059306193 -31.241385435432253 M85.89321192939245 -31.435279871635593 C86.43553027801606 -31.382963072777113, 86.97784862663967 -31.330646273918635, 87.90313059306193 -31.241385435432253 M87.90313059306193 -31.241385435432253 C88.55979702110344 -31.13522069987071, 89.21646344914492 -31.02905596430917, 89.89649680409322 -30.91911344521856 M87.90313059306193 -31.241385435432253 C88.51953430036133 -31.14173006431823, 89.13593800766071 -31.04207469320421, 89.89649680409322 -30.91911344521856 M89.89649680409322 -30.91911344521856 C90.45868199822229 -30.79079834325984, 91.02086719235135 -30.66248324130112, 91.86511939314947 -30.469788185729428 M89.89649680409322 -30.91911344521856 C90.64071220914451 -30.74925113547498, 91.38492761419579 -30.579388825731403, 91.86511939314947 -30.469788185729428 M91.86511939314947 -30.469788185729428 C92.50627822307514 -30.279495610518865, 93.14743705300083 -30.0892030353083, 93.80090886774406 -29.895256030836062 M91.86511939314947 -30.469788185729428 C92.40070489037798 -30.310829221497652, 92.93629038760649 -30.151870257265873, 93.80090886774406 -29.895256030836062 M93.80090886774406 -29.895256030836062 C94.51019785080375 -29.63423112847461, 95.21948683386344 -29.373206226113155, 95.69591065370028 -29.197877856399685 M93.80090886774406 -29.895256030836062 C94.27159013927623 -29.722040971982242, 94.74227141080841 -29.54882591312842, 95.69591065370028 -29.197877856399685 M95.69591065370028 -29.197877856399685 C96.224985611007 -28.963672067250986, 96.7540605683137 -28.72946627810229, 97.54233778220308 -28.380519338926202 M95.69591065370028 -29.197877856399685 C96.29723776432903 -28.9316881822593, 96.89856487495777 -28.665498508118915, 97.54233778220308 -28.380519338926202 M97.54233778220308 -28.380519338926202 C98.00037846908013 -28.141559805971504, 98.45841915595719 -27.902600273016805, 99.33260288812403 -27.44653917988677 M97.54233778220308 -28.380519338926202 C97.97944247377612 -28.152482101311463, 98.41654716534916 -27.924444863696728, 99.33260288812403 -27.44653917988677 M99.33260288812403 -27.44653917988677 C99.6950506923069 -27.22682119101139, 100.05749849648979 -27.00710320213601, 101.05934938813228 -26.399775304092984 M99.33260288812403 -27.44653917988677 C99.99136375195516 -27.047194472923792, 100.6501246157863 -26.647849765960814, 101.05934938813228 -26.399775304092984 M101.05934938813228 -26.399775304092984 C101.53790457260486 -26.065955923724953, 102.01645975707744 -25.732136543356926, 102.7154817104733 -25.244529088840633 M101.05934938813228 -26.399775304092984 C101.56525345616117 -26.04687852647016, 102.07115752419007 -25.69398174884733, 102.7154817104733 -25.244529088840633 M102.7154817104733 -25.244529088840633 C103.23663139447311 -24.82892608422631, 103.75778107847292 -24.41332307961199, 104.29419445219533 -23.985547688627737 M102.7154817104733 -25.244529088840633 C103.24888974275288 -24.819150377681538, 103.78229777503246 -24.393771666522447, 104.29419445219533 -23.985547688627737 M104.29419445219533 -23.985547688627737 C104.77453626332118 -23.549313964911118, 105.25487807444703 -23.113080241194503, 105.78900034400982 -22.62800452807842 M104.29419445219533 -23.985547688627737 C104.88131642357263 -23.452339048618985, 105.46843839494991 -22.91913040861023, 105.78900034400982 -22.62800452807842 M105.78900034400982 -22.62800452807842 C106.32483618685112 -22.07471002740392, 106.86067202969242 -21.52141552672942, 107.19375690787243 -21.177478043231485 M105.78900034400982 -22.62800452807842 C106.23175027609393 -22.17082887275613, 106.67450020817803 -21.713653217433837, 107.19375690787243 -21.177478043231485 M107.19375690787243 -21.177478043231485 C107.46124414533551 -20.863272313652356, 107.7287313827986 -20.549066584073227, 108.50269169774293 -19.63992875855011 M107.19375690787243 -21.177478043231485 C107.52479953026531 -20.788616542109956, 107.85584215265821 -20.399755040988428, 108.50269169774293 -19.63992875855011 M108.50269169774293 -19.63992875855011 C108.93663318172963 -19.058486702890388, 109.37057466571633 -18.477044647230667, 109.7104260198041 -18.02167479384835 M108.50269169774293 -19.63992875855011 C108.89328038051488 -19.116575506996718, 109.28386906328683 -18.59322225544333, 109.7104260198041 -18.02167479384835 M109.7104260198041 -18.02167479384835 C110.08579078837006 -17.445013709777417, 110.461155556936 -16.86835262570648, 110.8119970346684 -16.329365901781543 M109.7104260198041 -18.02167479384835 C110.05033230711847 -17.499487458915265, 110.39023859443284 -16.97730012398218, 110.8119970346684 -16.329365901781543 M110.8119970346684 -16.329365901781543 C111.07779074679424 -15.85742225137026, 111.34358445892008 -15.385478600958974, 111.8028781507495 -14.56995614258631 M110.8119970346684 -16.329365901781543 C111.1238685707008 -15.775606409138545, 111.43574010673319 -15.221846916495545, 111.8028781507495 -14.56995614258631 M111.8028781507495 -14.56995614258631 C112.00830551955283 -14.143381815824634, 112.21373288835616 -13.716807489062958, 112.67899762499809 -12.750675308355413 M111.8028781507495 -14.56995614258631 C112.04484312296948 -14.067510700550487, 112.28680809518947 -13.565065258514664, 112.67899762499809 -12.750675308355413 M112.67899762499809 -12.750675308355413 C112.94641480202709 -12.09014971093437, 113.21383197905611 -11.429624113513325, 113.43675529456745 -10.878999214271206 M112.67899762499809 -12.750675308355413 C112.97229574175607 -12.026223289429867, 113.26559385851407 -11.30177127050432, 113.43675529456745 -10.878999214271206 M113.43675529456745 -10.878999214271206 C113.59311229669959 -10.408076835954367, 113.74946929883173 -9.937154457637527, 114.07303737065482 -8.962618978877531 M113.43675529456745 -10.878999214271206 C113.66541563400291 -10.190310703969121, 113.89407597343838 -9.501622193667039, 114.07303737065482 -8.962618978877531 M114.07303737065482 -8.962618978877531 C114.19432344283626 -8.50010261993346, 114.31560951501771 -8.037586260989386, 114.58522923372745 -7.009409419623907 M114.07303737065482 -8.962618978877531 C114.27077647461063 -8.208554074824256, 114.46851557856644 -7.454489170770983, 114.58522923372745 -7.009409419623907 M114.58522923372745 -7.009409419623907 C114.73370807115924 -6.247001970425012, 114.88218690859105 -5.484594521226118, 114.97122617755518 -5.027396693551458 M114.58522923372745 -7.009409419623907 C114.72532332099537 -6.290055890398912, 114.86541740826331 -5.570702361173916, 114.97122617755518 -5.027396693551458 M114.97122617755518 -5.027396693551458 C115.04050232306211 -4.490104589121894, 115.10977846856906 -3.95281248469233, 115.22944205789975 -3.024725316091981 M114.97122617755518 -5.027396693551458 C115.0263062705988 -4.600206368699759, 115.08138636364242 -4.17301604384806, 115.22944205789975 -3.024725316091981 M115.22944205789975 -3.024725316091981 C115.25930711438885 -2.5595529546344546, 115.28917217087796 -2.0943805931769277, 115.35881581032167 -1.0096246935071378 M115.22944205789975 -3.024725316091981 C115.28059415405558 -2.227990129236071, 115.33174625021141 -1.4312549423801604, 115.35881581032167 -1.0096246935071378 M115.35881581032167 -1.0096246935071378 C115.35881581032167 -0.4765329374353282, 115.35881581032167 0.05655881863648138, 115.35881581032167 1.00962469350713 M115.35881581032167 -1.0096246935071378 C115.35881581032167 -0.2930561739648091, 115.35881581032167 0.4235123455775196, 115.35881581032167 1.00962469350713 M115.35881581032167 1.00962469350713 C115.32281907628787 1.5703028821242486, 115.28682234225408 2.1309810707413677, 115.22944205789975 3.02472531609196 M115.35881581032167 1.00962469350713 C115.31056951535 1.7610996813994078, 115.2623232203783 2.5125746692916855, 115.22944205789975 3.02472531609196 M115.22944205789975 3.02472531609196 C115.1453306256425 3.677076974998175, 115.06121919338526 4.32942863390439, 114.97122617755518 5.027396693551435 M115.22944205789975 3.02472531609196 C115.14886429522494 3.649670531518762, 115.06828653255013 4.274615746945564, 114.97122617755518 5.027396693551435 M114.97122617755518 5.027396693551435 C114.85200939229463 5.639549689387897, 114.73279260703407 6.251702685224358, 114.58522923372745 7.0094094196239 M114.97122617755518 5.027396693551435 C114.84722743613034 5.664104023624722, 114.7232286947055 6.300811353698007, 114.58522923372745 7.0094094196239 M114.58522923372745 7.0094094196239 C114.43245527744983 7.592002727561907, 114.27968132117223 8.174596035499913, 114.07303737065482 8.96261897887751 M114.58522923372745 7.0094094196239 C114.3864303654212 7.767515664450152, 114.18763149711496 8.525621909276405, 114.07303737065482 8.96261897887751 M114.07303737065482 8.96261897887751 C113.83691797787414 9.673772969416666, 113.60079858509344 10.384926959955823, 113.43675529456746 10.878999214271184 M114.07303737065482 8.96261897887751 C113.83759527150251 9.671733068920082, 113.6021531723502 10.380847158962652, 113.43675529456746 10.878999214271184 M113.43675529456746 10.878999214271184 C113.1982045919286 11.468224061853249, 112.95965388928974 12.057448909435314, 112.67899762499809 12.750675308355405 M113.43675529456746 10.878999214271184 C113.25914271337619 11.317705723719278, 113.08153013218491 11.756412233167373, 112.67899762499809 12.750675308355405 M112.67899762499809 12.750675308355405 C112.41304412879458 13.302933433715225, 112.14709063259106 13.855191559075045, 111.8028781507495 14.569956142586303 M112.67899762499809 12.750675308355405 C112.38414564258287 13.362941758662405, 112.08929366016763 13.975208208969407, 111.8028781507495 14.569956142586303 M111.8028781507495 14.569956142586303 C111.44388592622049 15.20738318914217, 111.08489370169147 15.84481023569804, 110.81199703466841 16.329365901781536 M111.8028781507495 14.569956142586303 C111.59845587376515 14.932928595372205, 111.39403359678079 15.295901048158106, 110.81199703466841 16.329365901781536 M110.81199703466841 16.329365901781536 C110.38150611576494 16.990715556214933, 109.95101519686148 17.65206521064833, 109.71042601980412 18.021674793848334 M110.81199703466841 16.329365901781536 C110.37894885673593 16.994644192803694, 109.94590067880345 17.659922483825856, 109.71042601980412 18.021674793848334 M109.71042601980412 18.021674793848334 C109.2606104711768 18.62438664996943, 108.8107949225495 19.227098506090524, 108.50269169774295 19.639928758550102 M109.71042601980412 18.021674793848334 C109.41681930004276 18.415081050206116, 109.12321258028142 18.808487306563897, 108.50269169774295 19.639928758550102 M108.50269169774295 19.639928758550102 C108.23579918750507 19.953435887689558, 107.9689066772672 20.266943016829018, 107.19375690787246 21.177478043231467 M108.50269169774295 19.639928758550102 C108.1416810874366 20.063992363501598, 107.78067047713024 20.488055968453097, 107.19375690787246 21.177478043231467 M107.19375690787246 21.177478043231467 C106.64612480472894 21.742953151158975, 106.09849270158543 22.308428259086487, 105.78900034400982 22.628004528078414 M107.19375690787246 21.177478043231467 C106.75710829645062 21.628353584042213, 106.3204596850288 22.07922912485296, 105.78900034400982 22.628004528078414 M105.78900034400982 22.628004528078414 C105.39389820994826 22.986825832403508, 104.9987960758867 23.345647136728598, 104.29419445219536 23.985547688627715 M105.78900034400982 22.628004528078414 C105.24238772903635 23.12442364242006, 104.69577511406287 23.620842756761704, 104.29419445219536 23.985547688627715 M104.29419445219536 23.985547688627715 C103.81511180844244 24.367603348096097, 103.33602916468952 24.74965900756448, 102.71548171047331 25.24452908884063 M104.29419445219536 23.985547688627715 C103.94900976819201 24.260823288370165, 103.60382508418867 24.536098888112612, 102.71548171047331 25.24452908884063 M102.71548171047331 25.24452908884063 C102.35524730623882 25.49581301493858, 101.99501290200435 25.74709694103653, 101.05934938813229 26.399775304092973 M102.71548171047331 25.24452908884063 C102.25569001599123 25.565259870849665, 101.79589832150916 25.885990652858705, 101.05934938813229 26.399775304092973 M101.05934938813229 26.399775304092973 C100.56502882360496 26.69943533525952, 100.07070825907765 26.999095366426065, 99.33260288812404 27.446539179886766 M101.05934938813229 26.399775304092973 C100.59739842897034 26.679812690262114, 100.1354474698084 26.959850076431255, 99.33260288812404 27.446539179886766 M99.33260288812404 27.446539179886766 C98.85239408486903 27.697063804956485, 98.37218528161404 27.9475884300262, 97.54233778220309 28.3805193389262 M99.33260288812404 27.446539179886766 C98.87799532218177 27.683707655848803, 98.4233877562395 27.92087613181084, 97.54233778220309 28.3805193389262 M97.54233778220309 28.3805193389262 C97.14502643125206 28.55639728816974, 96.74771508030105 28.732275237413283, 95.6959106537003 29.197877856399682 M97.54233778220309 28.3805193389262 C96.84541982585147 28.689024244866417, 96.14850186949982 28.99752915080663, 95.6959106537003 29.197877856399682 M95.6959106537003 29.197877856399682 C95.06577752391675 29.429772673046823, 94.4356443941332 29.66166748969397, 93.80090886774407 29.895256030836055 M95.6959106537003 29.197877856399682 C95.27970495897202 29.351045399422954, 94.86349926424374 29.504212942446227, 93.80090886774407 29.895256030836055 M93.80090886774407 29.895256030836055 C93.17863446020364 30.079943808609038, 92.5563600526632 30.26463158638202, 91.86511939314951 30.46978818572942 M93.80090886774407 29.895256030836055 C93.10034788870468 30.10317885209533, 92.39978690966528 30.311101673354607, 91.86511939314951 30.46978818572942 M91.86511939314951 30.46978818572942 C91.46412690515555 30.56131210439351, 91.0631344171616 30.652836023057603, 89.89649680409323 30.919113445218557 M91.86511939314951 30.46978818572942 C91.38537971143647 30.57928563748643, 90.90564002972344 30.688783089243437, 89.89649680409323 30.919113445218557 M89.89649680409323 30.919113445218557 C89.41915787924026 30.996285900770136, 88.94181895438727 31.07345835632172, 87.90313059306196 31.24138543543225 M89.89649680409323 30.919113445218557 C89.10777384060249 31.046628057317804, 88.31905087711176 31.17414266941705, 87.90313059306196 31.24138543543225 M87.90313059306196 31.24138543543225 C87.2093074568963 31.308317718933747, 86.51548432073064 31.375250002435244, 85.89321192939245 31.435279871635593 M87.90313059306196 31.24138543543225 C87.19026957299036 31.31015428069775, 86.47740855291876 31.378923125963244, 85.89321192939245 31.435279871635593 M85.89321192939245 31.435279871635593 C85.46655490923361 31.448961931834578, 85.03989788907477 31.462643992033563, 83.875 31.5 M85.89321192939245 31.435279871635593 C85.19075509980063 31.457806294911332, 84.4882982702088 31.480332718187068, 83.875 31.5 M83.875 31.5 C83.875 31.5, 83.875 31.5, 83.875 31.5 M83.875 31.5 C83.875 31.5, 83.875 31.5, 83.875 31.5 M83.875 31.5 C33.77538231267255 31.5, -16.324235374654904 31.5, -83.875 31.5 M83.875 31.5 C26.611073829540267 31.5, -30.652852340919466 31.5, -83.875 31.5 M-83.875 31.5 C-84.4899062955212 31.48028115194513, -85.1048125910424 31.46056230389026, -85.89321192939244 31.435279871635593 M-83.875 31.5 C-84.28625317487976 31.48681191113735, -84.69750634975951 31.4736238222747, -85.89321192939244 31.435279871635593 M-85.89321192939244 31.435279871635593 C-86.46947122776928 31.379688830174384, -87.04573052614612 31.32409778871317, -87.90313059306195 31.24138543543225 M-85.89321192939244 31.435279871635593 C-86.57057533311014 31.369935438727627, -87.24793873682786 31.30459100581966, -87.90313059306195 31.24138543543225 M-87.90313059306195 31.24138543543225 C-88.40558747207379 31.160152103844908, -88.90804435108564 31.078918772257566, -89.89649680409323 30.919113445218557 M-87.90313059306195 31.24138543543225 C-88.59069935470751 31.13022465022478, -89.27826811635308 31.019063865017305, -89.89649680409323 30.919113445218557 M-89.89649680409323 30.919113445218557 C-90.55672748410979 30.768420100912607, -91.21695816412635 30.617726756606654, -91.86511939314947 30.469788185729428 M-89.89649680409323 30.919113445218557 C-90.34720824828476 30.816241499248882, -90.79791969247628 30.713369553279204, -91.86511939314947 30.469788185729428 M-91.86511939314947 30.469788185729428 C-92.31330947623061 30.3367677216687, -92.76149955931174 30.203747257607972, -93.80090886774403 29.89525603083607 M-91.86511939314947 30.469788185729428 C-92.43715091173061 30.30001223366926, -93.00918243031174 30.130236281609093, -93.80090886774403 29.89525603083607 M-93.80090886774403 29.89525603083607 C-94.21783766639898 29.741822378883484, -94.63476646505391 29.588388726930898, -95.69591065370028 29.197877856399685 M-93.80090886774403 29.89525603083607 C-94.34380146859542 29.695466535278566, -94.88669406944682 29.495677039721066, -95.69591065370028 29.197877856399685 M-95.69591065370028 29.197877856399685 C-96.37067893426942 28.899177954881594, -97.04544721483856 28.6004780533635, -97.54233778220308 28.380519338926206 M-95.69591065370028 29.197877856399685 C-96.27715866369277 28.940576604485614, -96.85840667368527 28.68327535257154, -97.54233778220308 28.380519338926206 M-97.54233778220308 28.380519338926206 C-97.9296650990317 28.178450925831704, -98.3169924158603 27.976382512737203, -99.33260288812403 27.446539179886773 M-97.54233778220308 28.380519338926206 C-98.25737604177901 28.0074843369093, -98.97241430135496 27.6344493348924, -99.33260288812403 27.446539179886773 M-99.33260288812403 27.446539179886773 C-99.93531313614382 27.08117268561862, -100.5380233841636 26.71580619135046, -101.05934938813226 26.399775304092994 M-99.33260288812403 27.446539179886773 C-99.76055208203083 27.187113863631854, -100.18850127593764 26.927688547376935, -101.05934938813226 26.399775304092994 M-101.05934938813226 26.399775304092994 C-101.67015743748914 25.973702050315932, -102.28096548684601 25.54762879653887, -102.7154817104733 25.244529088840636 M-101.05934938813226 26.399775304092994 C-101.51048867040983 26.08508007028093, -101.96162795268741 25.770384836468867, -102.7154817104733 25.244529088840636 M-102.7154817104733 25.244529088840636 C-103.2579870778518 24.811895495030413, -103.8004924452303 24.379261901220186, -104.29419445219533 23.98554768862774 M-102.7154817104733 25.244529088840636 C-103.32158773397212 24.761175664258996, -103.92769375747093 24.277822239677356, -104.29419445219533 23.98554768862774 M-104.29419445219533 23.98554768862774 C-104.70973460584054 23.608165115677142, -105.12527475948575 23.23078254272654, -105.7890003440098 22.628004528078435 M-104.29419445219533 23.98554768862774 C-104.80592238033196 23.520809923873077, -105.3176503084686 23.056072159118415, -105.7890003440098 22.628004528078435 M-105.7890003440098 22.628004528078435 C-106.17766228611153 22.226679163119524, -106.56632422821325 21.825353798160613, -107.19375690787244 21.177478043231478 M-105.7890003440098 22.628004528078435 C-106.25261691310816 22.149282356856183, -106.7162334822065 21.67056018563393, -107.19375690787244 21.177478043231478 M-107.19375690787244 21.177478043231478 C-107.46973021920586 20.853304088412973, -107.74570353053929 20.529130133594464, -108.50269169774293 19.639928758550113 M-107.19375690787244 21.177478043231478 C-107.62882483306961 20.666422502228624, -108.06389275826679 20.15536696122577, -108.50269169774293 19.639928758550113 M-108.50269169774293 19.639928758550113 C-108.92280057052032 19.07702114173406, -109.34290944329771 18.514113524918013, -109.7104260198041 18.021674793848355 M-108.50269169774293 19.639928758550113 C-108.76475251752693 19.288791134271374, -109.02681333731093 18.93765350999264, -109.7104260198041 18.021674793848355 M-109.7104260198041 18.021674793848355 C-110.11073457988505 17.40669334766452, -110.51104313996599 16.79171190148068, -110.8119970346684 16.329365901781557 M-109.7104260198041 18.021674793848355 C-110.0201762482653 17.54581526334937, -110.32992647672651 17.06995573285038, -110.8119970346684 16.329365901781557 M-110.8119970346684 16.329365901781557 C-111.17571753761477 15.683543318105563, -111.53943804056115 15.03772073442957, -111.8028781507495 14.569956142586314 M-110.8119970346684 16.329365901781557 C-111.01292585868742 15.97259642848607, -111.21385468270645 15.615826955190585, -111.8028781507495 14.569956142586314 M-111.8028781507495 14.569956142586314 C-112.10575958802886 13.941016357451144, -112.40864102530821 13.312076572315974, -112.67899762499809 12.750675308355417 M-111.8028781507495 14.569956142586314 C-112.09930539917798 13.954418618697513, -112.39573264760647 13.338881094808713, -112.67899762499809 12.750675308355417 M-112.67899762499809 12.750675308355417 C-112.92688353319767 12.138392322554473, -113.17476944139723 11.526109336753532, -113.43675529456745 10.878999214271209 M-112.67899762499809 12.750675308355417 C-112.9035317777156 12.196071610070657, -113.1280659304331 11.641467911785897, -113.43675529456745 10.878999214271209 M-113.43675529456745 10.878999214271209 C-113.61953520928205 10.328495233175387, -113.80231512399665 9.777991252079564, -114.07303737065482 8.962618978877522 M-113.43675529456745 10.878999214271209 C-113.58278742345007 10.439173709136758, -113.7288195523327 9.99934820400231, -114.07303737065482 8.962618978877522 M-114.07303737065482 8.962618978877522 C-114.2519506205814 8.280345215414423, -114.43086387050798 7.5980714519513235, -114.58522923372743 7.009409419623911 M-114.07303737065482 8.962618978877522 C-114.19743615459888 8.488232500924784, -114.32183493854295 8.013846022972047, -114.58522923372743 7.009409419623911 M-114.58522923372743 7.009409419623911 C-114.69012268037702 6.470803740316101, -114.7950161270266 5.9321980610082905, -114.97122617755518 5.027396693551461 M-114.58522923372743 7.009409419623911 C-114.72217571549537 6.306218179394771, -114.8591221972633 5.60302693916563, -114.97122617755518 5.027396693551461 M-114.97122617755518 5.027396693551461 C-115.05064983233517 4.411402511052442, -115.13007348711517 3.7954083285534237, -115.22944205789975 3.024725316091999 M-114.97122617755518 5.027396693551461 C-115.0329104778836 4.548985441147066, -115.09459477821203 4.07057418874267, -115.22944205789975 3.024725316091999 M-115.22944205789975 3.024725316091999 C-115.2653567582165 2.4653248688343314, -115.30127145853324 1.9059244215766635, -115.35881581032167 1.0096246935071416 M-115.22944205789975 3.024725316091999 C-115.26356293210972 2.4932651583977674, -115.29768380631968 1.9618050007035357, -115.35881581032167 1.0096246935071416 M-115.35881581032167 1.0096246935071416 C-115.35881581032167 0.4456391215527483, -115.35881581032167 -0.11834645040164493, -115.35881581032167 -1.0096246935071262 M-115.35881581032167 1.0096246935071416 C-115.35881581032167 0.30759652889683164, -115.35881581032167 -0.3944316357134783, -115.35881581032167 -1.0096246935071262 M-115.35881581032167 -1.0096246935071262 C-115.30744687094634 -1.809737388539495, -115.256077931571 -2.609850083571864, -115.22944205789975 -3.024725316091956 M-115.35881581032167 -1.0096246935071262 C-115.3118470743588 -1.741200668610296, -115.2648783383959 -2.4727766437134657, -115.22944205789975 -3.024725316091956 M-115.22944205789975 -3.024725316091956 C-115.16864036359632 -3.496291250456736, -115.1078386692929 -3.9678571848215167, -114.97122617755518 -5.027396693551446 M-115.22944205789975 -3.024725316091956 C-115.17621367771879 -3.437554121642924, -115.12298529753782 -3.850382927193892, -114.97122617755518 -5.027396693551446 M-114.97122617755518 -5.027396693551446 C-114.83589274232105 -5.7223052807470305, -114.70055930708692 -6.417213867942614, -114.58522923372745 -7.009409419623896 M-114.97122617755518 -5.027396693551446 C-114.83569710692117 -5.723309827177848, -114.70016803628717 -6.41922296080425, -114.58522923372745 -7.009409419623896 M-114.58522923372745 -7.009409419623896 C-114.43054002004584 -7.599306434121155, -114.27585080636423 -8.189203448618414, -114.07303737065482 -8.962618978877506 M-114.58522923372745 -7.009409419623896 C-114.42038451392273 -7.638033780392785, -114.25553979411801 -8.266658141161674, -114.07303737065482 -8.962618978877506 M-114.07303737065482 -8.962618978877506 C-113.85993105395501 -9.604461250896774, -113.64682473725522 -10.246303522916044, -113.43675529456746 -10.878999214271168 M-114.07303737065482 -8.962618978877506 C-113.8463741835742 -9.645292384489842, -113.61971099649357 -10.327965790102178, -113.43675529456746 -10.878999214271168 M-113.43675529456746 -10.878999214271168 C-113.19769369871379 -11.469485977971246, -112.95863210286014 -12.059972741671324, -112.67899762499809 -12.750675308355401 M-113.43675529456746 -10.878999214271168 C-113.16469254219417 -11.550999472608654, -112.8926297898209 -12.222999730946139, -112.67899762499809 -12.750675308355401 M-112.67899762499809 -12.750675308355401 C-112.49452628672572 -13.133733989332315, -112.31005494845334 -13.51679267030923, -111.8028781507495 -14.5699561425863 M-112.67899762499809 -12.750675308355401 C-112.35346426272588 -13.426652300411797, -112.02793090045365 -14.102629292468192, -111.8028781507495 -14.5699561425863 M-111.8028781507495 -14.5699561425863 C-111.5888374568034 -14.95000706865812, -111.37479676285729 -15.33005799472994, -110.8119970346684 -16.329365901781546 M-111.8028781507495 -14.5699561425863 C-111.57210235562728 -14.979721935409081, -111.34132656050504 -15.389487728231863, -110.8119970346684 -16.329365901781546 M-110.8119970346684 -16.329365901781546 C-110.53730651917755 -16.751364298306935, -110.2626160036867 -17.173362694832324, -109.71042601980412 -18.021674793848344 M-110.8119970346684 -16.329365901781546 C-110.41206450565848 -16.94376966326181, -110.01213197664856 -17.558173424742076, -109.71042601980412 -18.021674793848344 M-109.71042601980412 -18.021674793848344 C-109.4385506481056 -18.385963023568447, -109.1666752764071 -18.750251253288553, -108.50269169774295 -19.639928758550102 M-109.71042601980412 -18.021674793848344 C-109.26195940073127 -18.622579207256468, -108.81349278165843 -19.223483620664595, -108.50269169774295 -19.639928758550102 M-108.50269169774295 -19.639928758550102 C-108.15880180329728 -20.043881396455316, -107.8149119088516 -20.44783403436053, -107.19375690787246 -21.177478043231467 M-108.50269169774295 -19.639928758550102 C-108.14407582438919 -20.06117936921268, -107.78545995103545 -20.48242997987526, -107.19375690787246 -21.177478043231467 M-107.19375690787246 -21.177478043231467 C-106.8317649104332 -21.551264500683214, -106.46977291299393 -21.925050958134957, -105.78900034400984 -22.628004528078403 M-107.19375690787246 -21.177478043231467 C-106.68044198595945 -21.70751784404551, -106.16712706404644 -22.237557644859546, -105.78900034400984 -22.628004528078403 M-105.78900034400984 -22.628004528078403 C-105.33739397867554 -23.038141480225367, -104.88578761334124 -23.44827843237233, -104.29419445219536 -23.98554768862771 M-105.78900034400984 -22.628004528078403 C-105.24916691522905 -23.11826696488728, -104.70933348644827 -23.60852940169616, -104.29419445219536 -23.98554768862771 M-104.29419445219536 -23.98554768862771 C-103.84656469684121 -24.342520506594585, -103.39893494148706 -24.699493324561463, -102.71548171047331 -25.244529088840626 M-104.29419445219536 -23.98554768862771 C-103.83818819120044 -24.349200546934924, -103.38218193020552 -24.712853405242136, -102.71548171047331 -25.244529088840626 M-102.71548171047331 -25.244529088840626 C-102.33650753151935 -25.508885070551116, -101.95753335256538 -25.77324105226161, -101.0593493881323 -26.39977530409297 M-102.71548171047331 -25.244529088840626 C-102.13747850458842 -25.647719103910422, -101.55947529870352 -26.050909118980215, -101.0593493881323 -26.39977530409297 M-101.0593493881323 -26.39977530409297 C-100.63204473548275 -26.658809895649995, -100.20474008283321 -26.917844487207017, -99.33260288812404 -27.446539179886763 M-101.0593493881323 -26.39977530409297 C-100.37976742682622 -26.811741882703615, -99.70018546552012 -27.22370846131426, -99.33260288812404 -27.446539179886763 M-99.33260288812404 -27.446539179886763 C-98.67813600060501 -27.7879741358994, -98.02366911308596 -28.129409091912038, -97.54233778220309 -28.3805193389262 M-99.33260288812404 -27.446539179886763 C-98.67459503600347 -27.78982145486393, -98.01658718388288 -28.133103729841093, -97.54233778220309 -28.3805193389262 M-97.54233778220309 -28.3805193389262 C-96.87111666765114 -28.677649015271427, -96.19989555309918 -28.974778691616653, -95.6959106537003 -29.19787785639968 M-97.54233778220309 -28.3805193389262 C-96.8385077584167 -28.69208401208059, -96.1346777346303 -29.003648685234978, -95.6959106537003 -29.19787785639968 M-95.6959106537003 -29.19787785639968 C-95.23634501473927 -29.367002259715534, -94.77677937577823 -29.536126663031393, -93.80090886774407 -29.895256030836055 M-95.6959106537003 -29.19787785639968 C-95.29710860560431 -29.344640696584722, -94.89830655750832 -29.49140353676977, -93.80090886774407 -29.895256030836055 M-93.80090886774407 -29.895256030836055 C-93.14485876527394 -30.08996825757193, -92.48880866280382 -30.284680484307803, -91.86511939314951 -30.469788185729417 M-93.80090886774407 -29.895256030836055 C-93.39856854679637 -30.01466852616589, -92.99622822584868 -30.134081021495724, -91.86511939314951 -30.469788185729417 M-91.86511939314951 -30.469788185729417 C-91.12742093722855 -30.638163044361065, -90.3897224813076 -30.806537902992712, -89.89649680409325 -30.919113445218553 M-91.86511939314951 -30.469788185729417 C-91.39605683995478 -30.576848652576896, -90.92699428676005 -30.683909119424378, -89.89649680409325 -30.919113445218553 M-89.89649680409325 -30.919113445218553 C-89.36057013369654 -31.00575791311489, -88.82464346329982 -31.09240238101123, -87.90313059306196 -31.24138543543225 M-89.89649680409325 -30.919113445218553 C-89.3155414595186 -31.0130377999534, -88.73458611494395 -31.10696215468824, -87.90313059306196 -31.24138543543225 M-87.90313059306196 -31.24138543543225 C-87.25287379723262 -31.30411492647769, -86.60261700140329 -31.366844417523133, -85.89321192939246 -31.435279871635593 M-87.90313059306196 -31.24138543543225 C-87.41525026516257 -31.288450663902765, -86.92736993726317 -31.335515892373277, -85.89321192939246 -31.435279871635593 M-85.89321192939246 -31.435279871635593 C-85.17441728927659 -31.458330216695217, -84.45562264916073 -31.481380561754843, -83.87500000000001 -31.5 M-85.89321192939246 -31.435279871635593 C-85.32572824737228 -31.453477968778003, -84.7582445653521 -31.471676065920413, -83.87500000000001 -31.5 M-83.87500000000001 -31.5 C-83.87500000000001 -31.5, -83.875 -31.5, -83.875 -31.5 M-83.87500000000001 -31.5 C-83.87500000000001 -31.5, -83.87500000000001 -31.5, -83.875 -31.5" stroke="#999" stroke-width="1.3" fill="none" stroke-dasharray="0 0" style="fill:#1f6f43 !important"></path></g><g class="label" style="color:#fff !important" transform="translate(-100, -24)"><rect></rect><foreignObject width="200" height="48"><div style="color: rgb(255, 255, 255) !important; display: table; white-space: break-spaces; line-height: 1.5; max-width: 200px; text-align: center; width: 200px;" xmlns="http://www.w3.org/1999/xhtml"><span style="color:#fff !important" class="nodeLabel "><p>pg_cron tangy-platform-jobs */5</p></span></div></foreignObject></g></g><g class="node default dec " id="d65-flowchart-L-1" data-look="classic" transform="translate(293, 254.2734375)"><polygon points="133.2734375,0 266.546875,-133.2734375 133.2734375,-266.546875 0,-133.2734375" class="label-container" transform="translate(-132.7734375, 133.2734375)" style="fill:#fff3c4 !important;stroke:#b38600 !important"></polygon><g class="label" style="color:#222 !important" transform="translate(-94.2734375, -24)"><rect></rect><foreignObject width="188.546875" height="48"><div style="color: rgb(34, 34, 34) !important; display: table-cell; white-space: nowrap; line-height: 1.5; max-width: 200px; text-align: center;" xmlns="http://www.w3.org/1999/xhtml"><span style="color:#222 !important" class="nodeLabel "><p>pg_try_advisory_xact_lock<br/>'tangy.run_platform_jobs'</p></span></div></foreignObject></g></g><g class="node default err " id="d65-flowchart-SK-3" data-look="classic" transform="translate(138, 510.546875)"><rect class="basic label-container" style="fill:#fbdada !important;stroke:#b42318 !important" x="-130" y="-51" width="260" height="102"></rect><g class="label" style="color:#5a0d0d !important" transform="translate(-100, -36)"><rect></rect><foreignObject width="200" height="72"><div style="color: rgb(90, 13, 13) !important; display: table; white-space: break-spaces; line-height: 1.5; max-width: 200px; text-align: center; width: 200px;" xmlns="http://www.w3.org/1999/xhtml"><span style="color:#5a0d0d !important" class="nodeLabel "><p>platform_job_runs row skipped=true<br/>(another run in progress)</p></span></div></foreignObject></g></g><g class="node default db " id="d65-flowchart-R-5" data-look="classic" transform="translate(448, 510.546875)"><rect class="basic label-container" style="fill:#dce8f7 !important;stroke:#2a5b9a !important" x="-130" y="-39" width="260" height="78"></rect><g class="label" style="color:#122 !important" transform="translate(-100, -24)"><rect></rect><foreignObject width="200" height="48"><div style="color: rgb(17, 34, 34) !important; display: table; white-space: break-spaces; line-height: 1.5; max-width: 200px; text-align: center; width: 200px;" xmlns="http://www.w3.org/1999/xhtml"><span style="color:#122 !important" class="nodeLabel "><p>platform_job_runs row started</p></span></div></foreignObject></g></g><g class="node default db " id="d65-flowchart-J1-7" data-look="classic" transform="translate(448, 686.546875)"><rect class="basic label-container" style="fill:#dce8f7 !important;stroke:#2a5b9a !important" x="-130" y="-75" width="260" height="150"></rect><g class="label" style="color:#122 !important" transform="translate(-100, -60)"><rect></rect><foreignObject width="200" height="120"><div style="color: rgb(17, 34, 34) !important; display: table; white-space: break-spaces; line-height: 1.5; max-width: 200px; text-align: center; width: 200px;" xmlns="http://www.w3.org/1999/xhtml"><span style="color:#122 !important" class="nodeLabel "><p>expire_stale_bookings<br/>pending unpaid &gt; 30 min → expired · notify customer · audit · seats → waitlist</p></span></div></foreignObject></g></g><g class="node default db " id="d65-flowchart-J2-9" data-look="classic" transform="translate(448, 862.546875)"><rect class="basic label-container" style="fill:#dce8f7 !important;stroke:#2a5b9a !important" x="-130" y="-51" width="260" height="102"></rect><g class="label" style="color:#122 !important" transform="translate(-100, -36)"><rect></rect><foreignObject width="200" height="72"><div style="color: rgb(17, 34, 34) !important; display: table; white-space: break-spaces; line-height: 1.5; max-width: 200px; text-align: center; width: 200px;" xmlns="http://www.w3.org/1999/xhtml"><span style="color:#122 !important" class="nodeLabel "><p>expire_waitlist_offers<br/>lapsed offers → expired · notify · offer onwards</p></span></div></foreignObject></g></g><g class="node default db " id="d65-flowchart-J3-11" data-look="classic" transform="translate(448, 1014.546875)"><rect class="basic label-container" style="fill:#dce8f7 !important;stroke:#2a5b9a !important" x="-130" y="-51" width="260" height="102"></rect><g class="label" style="color:#122 !important" transform="translate(-100, -36)"><rect></rect><foreignObject width="200" height="72"><div style="color: rgb(17, 34, 34) !important; display: table; white-space: break-spaces; line-height: 1.5; max-width: 200px; text-align: center; width: 200px;" xmlns="http://www.w3.org/1999/xhtml"><span style="color:#122 !important" class="nodeLabel "><p>expire_booking_requests<br/>pending artist requests past expires_at → expired</p></span></div></foreignObject></g></g><g class="node default db " id="d65-flowchart-J4-13" data-look="classic" transform="translate(448, 1190.546875)"><rect class="basic label-container" style="fill:#dce8f7 !important;stroke:#2a5b9a !important" x="-130" y="-75" width="260" height="150"></rect><g class="label" style="color:#122 !important" transform="translate(-100, -60)"><rect></rect><foreignObject width="200" height="120"><div style="color: rgb(17, 34, 34) !important; display: table; white-space: break-spaces; line-height: 1.5; max-width: 200px; text-align: center; width: 200px;" xmlns="http://www.w3.org/1999/xhtml"><span style="color:#122 !important" class="nodeLabel "><p>send_event_reminders<br/>members of events starting within 24 h · event_reminders_sent dedupe</p></span></div></foreignObject></g></g><g class="node default db " id="d65-flowchart-J5-15" data-look="classic" transform="translate(448, 1366.546875)"><rect class="basic label-container" style="fill:#dce8f7 !important;stroke:#2a5b9a !important" x="-130" y="-51" width="260" height="102"></rect><g class="label" style="color:#122 !important" transform="translate(-100, -36)"><rect></rect><foreignObject width="200" height="72"><div style="color: rgb(17, 34, 34) !important; display: table; white-space: break-spaces; line-height: 1.5; max-width: 200px; text-align: center; width: 200px;" xmlns="http://www.w3.org/1999/xhtml"><span style="color:#122 !important" class="nodeLabel "><p>notify_overdue_tasks<br/>assignee + team.manage · overdue_notified_at marker</p></span></div></foreignObject></g></g><g class="node default db " id="d65-flowchart-J6-17" data-look="classic" transform="translate(448, 1518.546875)"><rect class="basic label-container" style="fill:#dce8f7 !important;stroke:#2a5b9a !important" x="-130" y="-51" width="260" height="102"></rect><g class="label" style="color:#122 !important" transform="translate(-100, -36)"><rect></rect><foreignObject width="200" height="72"><div style="color: rgb(17, 34, 34) !important; display: table; white-space: break-spaces; line-height: 1.5; max-width: 200px; text-align: center; width: 200px;" xmlns="http://www.w3.org/1999/xhtml"><span style="color:#122 !important" class="nodeLabel "><p>notify_expiring_access<br/>volunteer grants about to end · expiring_notified_at</p></span></div></foreignObject></g></g><g class="node default db " id="d65-flowchart-J7-19" data-look="classic" transform="translate(448, 1670.546875)"><rect class="basic label-container" style="fill:#dce8f7 !important;stroke:#2a5b9a !important" x="-130" y="-51" width="260" height="102"></rect><g class="label" style="color:#122 !important" transform="translate(-100, -36)"><rect></rect><foreignObject width="200" height="72"><div style="color: rgb(17, 34, 34) !important; display: table; white-space: break-spaces; line-height: 1.5; max-width: 200px; text-align: center; width: 200px;" xmlns="http://www.w3.org/1999/xhtml"><span style="color:#122 !important" class="nodeLabel "><p>log_expired_access<br/>audit access.expired · expiry_logged_at</p></span></div></foreignObject></g></g><g class="node default db " id="d65-flowchart-J8-21" data-look="classic" transform="translate(448, 1822.546875)"><rect class="basic label-container" style="fill:#dce8f7 !important;stroke:#2a5b9a !important" x="-130" y="-51" width="260" height="102"></rect><g class="label" style="color:#122 !important" transform="translate(-100, -36)"><rect></rect><foreignObject width="200" height="72"><div style="color: rgb(17, 34, 34) !important; display: table; white-space: break-spaces; line-height: 1.5; max-width: 200px; text-align: center; width: 200px;" xmlns="http://www.w3.org/1999/xhtml"><span style="color:#122 !important" class="nodeLabel "><p>send_availability_reminders<br/>artists with calendars older than 30 days</p></span></div></foreignObject></g></g><g class="node default res " id="d65-flowchart-F-23" data-look="classic" transform="translate(448, 1974.546875)"><rect class="basic label-container" style="fill:#d9f2e3 !important;stroke:#1f7a4a !important" x="-130" y="-51" width="260" height="102"></rect><g class="label" style="color:#0f3d24 !important" transform="translate(-100, -36)"><rect></rect><foreignObject width="200" height="72"><div style="color: rgb(15, 61, 36) !important; display: table; white-space: break-spaces; line-height: 1.5; max-width: 200px; text-align: center; width: 200px;" xmlns="http://www.w3.org/1999/xhtml"><span style="color:#0f3d24 !important" class="nodeLabel "><p>platform_job_runs finished_at + result jsonb (counts)</p></span></div></foreignObject></g></g></g></g></g><defs><filter id="d65-drop-shadow" height="130%" width="130%"><feDropShadow dx="4" dy="4" stdDeviation="0" flood-opacity="0.06" flood-color="#000000"></feDropShadow></filter></defs><defs><filter id="d65-drop-shadow-small" height="150%" width="150%"><feDropShadow dx="2" dy="2" stdDeviation="0" flood-opacity="0.06" flood-color="#000000"></feDropShadow></filter></defs><linearGradient id="d65-gradient" gradientUnits="objectBoundingBox" x1="0%" y1="0%" x2="100%" y2="0%"><stop offset="0%" stop-color="hsl(0, 0%, 83.3333333333%)" stop-opacity="1"></stop><stop offset="100%" stop-color="hsl(0, 0%, 88.9215686275%)" stop-opacity="1"></stop></linearGradient><text text-anchor="middle" x="293" y="-25" class="flowchartTitleText">run_platform_jobs — single-flight job runner (every 5 minutes)</text></svg>