<svg xmlns="http://www.w3.org/2000/svg" viewBox="0 0 1200 750" width="1200" height="750"><rect width="1200" height="750" fill="#211915"/><path d="M60 750 V472 A140 140 0 0 1 340 472 V750" fill="none" stroke="#E7D5A4" stroke-width="3" opacity="0.55"/><path d="M460 750 V487 A140 140 0 0 1 740 487 V750" fill="none" stroke="#E7D5A4" stroke-width="3" opacity="0.55"/><path d="M860 750 V462 A140 140 0 0 1 1140 462 V750" fill="none" stroke="#E7D5A4" stroke-width="3" opacity="0.55"/><circle cx="325" cy="142" r="4.2" fill="#B94717" opacity="0.85"/><circle cx="790" cy="155" r="4.1" fill="#B94717" opacity="0.85"/><circle cx="476" cy="279" r="2.4" fill="#B94717" opacity="0.85"/><circle cx="268" cy="312" r="3.1" fill="#B94717" opacity="0.85"/><circle cx="312" cy="286" r="3.9" fill="#B94717" opacity="0.85"/><circle cx="180" cy="220" r="4.0" fill="#B94717" opacity="0.85"/><circle cx="198" cy="246" r="2.4" fill="#B94717" opacity="0.85"/><circle cx="404" cy="97" r="2.6" fill="#B94717" opacity="0.85"/><circle cx="1174" cy="181" r="5.0" fill="#B94717" opacity="0.85"/><text x="12" y="22" font-family="monospace" font-size="11" letter-spacing="2" fill="#E7D5A4" opacity="0.7">DEMO IMAGE</text></svg>