<svg xmlns="http://www.w3.org/2000/svg" viewBox="0 0 1200 750" width="1200" height="750"><rect width="1200" height="750" fill="#162021"/><path d="M36 750 V383 A84 84 0 0 1 204 383 V750" fill="none" stroke="#E7D5A4" stroke-width="3" opacity="0.55"/><path d="M276 750 V374 A84 84 0 0 1 444 374 V750" fill="none" stroke="#E7D5A4" stroke-width="3" opacity="0.55"/><path d="M516 750 V439 A84 84 0 0 1 684 439 V750" fill="none" stroke="#E7D5A4" stroke-width="3" opacity="0.55"/><path d="M756 750 V359 A84 84 0 0 1 924 359 V750" fill="none" stroke="#E7D5A4" stroke-width="3" opacity="0.55"/><path d="M996 750 V400 A84 84 0 0 1 1164 400 V750" fill="none" stroke="#E7D5A4" stroke-width="3" opacity="0.55"/><circle cx="1200" cy="137" r="3.7" fill="#d1a437" opacity="0.85"/><circle cx="793" cy="76" r="2.8" fill="#d1a437" opacity="0.85"/><circle cx="1003" cy="206" r="4.4" fill="#d1a437" opacity="0.85"/><circle cx="229" cy="337" r="3.2" fill="#d1a437" opacity="0.85"/><circle cx="398" cy="106" r="3.7" fill="#d1a437" opacity="0.85"/><circle cx="312" cy="198" r="2.7" fill="#d1a437" opacity="0.85"/><circle cx="86" cy="297" r="4.1" fill="#d1a437" opacity="0.85"/><circle cx="1081" cy="231" r="3.6" fill="#d1a437" opacity="0.85"/><circle cx="120" cy="285" r="4.1" fill="#d1a437" opacity="0.85"/><circle cx="254" cy="161" r="2.3" fill="#d1a437" opacity="0.85"/><circle cx="692" cy="292" r="4.8" fill="#d1a437" opacity="0.85"/><circle cx="941" cy="330" r="2.8" fill="#d1a437" opacity="0.85"/><circle cx="752" cy="316" r="4.9" fill="#d1a437" opacity="0.85"/><circle cx="422" cy="214" r="4.5" fill="#d1a437" opacity="0.85"/><text x="12" y="22" font-family="monospace" font-size="11" letter-spacing="2" fill="#E7D5A4" opacity="0.7">DEMO IMAGE</text></svg>