<svg xmlns="http://www.w3.org/2000/svg" viewBox="0 0 800 600" width="800" height="600"><rect width="800" height="600" fill="#4A171D"/><path d="M24 600 V339 A56 56 0 0 1 136 339 V600" fill="none" stroke="#EFE2C0" stroke-width="3" opacity="0.55"/><path d="M184 600 V283 A56 56 0 0 1 296 283 V600" fill="none" stroke="#EFE2C0" stroke-width="3" opacity="0.55"/><path d="M344 600 V306 A56 56 0 0 1 456 306 V600" fill="none" stroke="#EFE2C0" stroke-width="3" opacity="0.55"/><path d="M504 600 V336 A56 56 0 0 1 616 336 V600" fill="none" stroke="#EFE2C0" stroke-width="3" opacity="0.55"/><path d="M664 600 V300 A56 56 0 0 1 776 300 V600" fill="none" stroke="#EFE2C0" stroke-width="3" opacity="0.55"/><circle cx="704" cy="148" r="4.5" fill="#d1a437" opacity="0.85"/><circle cx="393" cy="186" r="4.1" fill="#d1a437" opacity="0.85"/><circle cx="334" cy="94" r="4.0" fill="#d1a437" opacity="0.85"/><circle cx="797" cy="67" r="2.1" fill="#d1a437" opacity="0.85"/><circle cx="564" cy="256" r="3.6" fill="#d1a437" opacity="0.85"/><circle cx="7" cy="153" r="4.5" fill="#d1a437" opacity="0.85"/><circle cx="180" cy="188" r="2.1" fill="#d1a437" opacity="0.85"/><circle cx="134" cy="236" r="4.5" fill="#d1a437" opacity="0.85"/><circle cx="336" cy="119" r="2.1" fill="#d1a437" opacity="0.85"/><circle cx="722" cy="245" r="4.6" fill="#d1a437" opacity="0.85"/><circle cx="61" cy="269" r="2.4" fill="#d1a437" opacity="0.85"/><circle cx="398" cy="115" r="2.6" fill="#d1a437" opacity="0.85"/><text x="12" y="22" font-family="monospace" font-size="11" letter-spacing="2" fill="#EFE2C0" opacity="0.7">DEMO IMAGE</text></svg>