<svg xmlns="http://www.w3.org/2000/svg" viewBox="0 0 800 600" width="800" height="600"><rect width="800" height="600" fill="#2b1d14"/><path d="M30 600 V291 A70 70 0 0 1 170 291 V600" fill="none" stroke="#ecdcaf" stroke-width="3" opacity="0.55"/><path d="M230 600 V305 A70 70 0 0 1 370 305 V600" fill="none" stroke="#ecdcaf" stroke-width="3" opacity="0.55"/><path d="M430 600 V319 A70 70 0 0 1 570 319 V600" fill="none" stroke="#ecdcaf" stroke-width="3" opacity="0.55"/><path d="M630 600 V282 A70 70 0 0 1 770 282 V600" fill="none" stroke="#ecdcaf" stroke-width="3" opacity="0.55"/><circle cx="297" cy="124" r="3.8" fill="#a64a2b" opacity="0.85"/><circle cx="219" cy="173" r="3.3" fill="#a64a2b" opacity="0.85"/><circle cx="595" cy="135" r="4.8" fill="#a64a2b" opacity="0.85"/><circle cx="280" cy="105" r="4.2" fill="#a64a2b" opacity="0.85"/><circle cx="329" cy="237" r="4.5" fill="#a64a2b" opacity="0.85"/><circle cx="209" cy="79" r="4.9" fill="#a64a2b" opacity="0.85"/><circle cx="379" cy="270" r="4.6" fill="#a64a2b" opacity="0.85"/><circle cx="649" cy="150" r="3.9" fill="#a64a2b" opacity="0.85"/><circle cx="32" cy="262" r="2.1" fill="#a64a2b" opacity="0.85"/><circle cx="534" cy="107" r="4.6" fill="#a64a2b" opacity="0.85"/><circle cx="269" cy="116" r="2.2" fill="#a64a2b" opacity="0.85"/><circle cx="651" cy="204" r="4.2" fill="#a64a2b" opacity="0.85"/><circle cx="457" cy="103" r="3.4" fill="#a64a2b" opacity="0.85"/><text x="12" y="22" font-family="monospace" font-size="11" letter-spacing="2" fill="#ecdcaf" opacity="0.7">DEMO IMAGE</text></svg>