<svg xmlns="http://www.w3.org/2000/svg" viewBox="0 0 800 600" width="800" height="600"><rect width="800" height="600" fill="#181614"/><rect x="80" y="330" width="640" height="6" fill="#EFE2C0" opacity="0.15"/><rect x="94" y="344" width="612" height="6" fill="#EFE2C0" opacity="0.20"/><rect x="108" y="358" width="584" height="6" fill="#EFE2C0" opacity="0.25"/><rect x="122" y="372" width="556" height="6" fill="#EFE2C0" opacity="0.30"/><rect x="136" y="386" width="528" height="6" fill="#EFE2C0" opacity="0.35"/><path d="M40 600 V370 A93 93 0 0 1 227 370 V600" fill="none" stroke="#EFE2C0" stroke-width="3" opacity="0.55"/><path d="M307 600 V325 A93 93 0 0 1 493 325 V600" fill="none" stroke="#EFE2C0" stroke-width="3" opacity="0.55"/><path d="M573 600 V316 A93 93 0 0 1 760 316 V600" fill="none" stroke="#EFE2C0" stroke-width="3" opacity="0.55"/><circle cx="541" cy="247" r="2.3" fill="#C99A2E" opacity="0.85"/><circle cx="338" cy="66" r="2.7" fill="#C99A2E" opacity="0.85"/><circle cx="404" cy="66" r="2.6" fill="#C99A2E" opacity="0.85"/><circle cx="520" cy="174" r="2.7" fill="#C99A2E" opacity="0.85"/><circle cx="471" cy="230" r="2.0" fill="#C99A2E" opacity="0.85"/><circle cx="645" cy="207" r="3.0" fill="#C99A2E" opacity="0.85"/><circle cx="124" cy="261" r="3.0" fill="#C99A2E" opacity="0.85"/><text x="12" y="22" font-family="monospace" font-size="11" letter-spacing="2" fill="#EFE2C0" opacity="0.7">DEMO IMAGE</text></svg>